<?xml version="1.0" encoding="UTF-8" standalone="no"?>
<!-- Created with Inkscape (http://www.inkscape.org/) -->

<svg
   xmlns:dc="http://purl.org/dc/elements/1.1/"
   xmlns:cc="http://creativecommons.org/ns#"
   xmlns:rdf="http://www.w3.org/1999/02/22-rdf-syntax-ns#"
   xmlns:svg="http://www.w3.org/2000/svg"
   xmlns="http://www.w3.org/2000/svg"
   version="1.1"
   width="744.09448"
   height="1052.3622"
   id="svg2">
  <defs
     id="defs4">
    <clipPath
       id="clipPath3071">
      <path
         d="m 0,0 5950,0 0,7920 L 0,7920 0,0 z"
         id="path3073" />
    </clipPath>
    <clipPath
       id="clipPath3296">
      <path
         d="m 0,0 5950,0 0,7920 L 0,7920 0,0 z"
         id="path3298" />
    </clipPath>
    <clipPath
       id="clipPath4655">
      <path
         d="m 0,0 5950,0 0,7920 L 0,7920 0,0 z"
         id="path4657" />
    </clipPath>
    <clipPath
       id="clipPath3129">
      <path
         d="m 0,0 5950,0 0,7920 L 0,7920 0,0 z"
         id="path3131-9" />
    </clipPath>
  </defs>
  <metadata
     id="metadata7">
    <rdf:RDF>
      <cc:Work
         rdf:about="">
        <dc:format>image/svg+xml</dc:format>
        <dc:type
           rdf:resource="http://purl.org/dc/dcmitype/StillImage" />
        <dc:title></dc:title>
      </cc:Work>
    </rdf:RDF>
  </metadata>
  <g
     id="layer1">
    <path
       d="m 351.96875,565.15625 0.34375,19.71875 c -0.64499,0.0113 -1.29518,0.009 -1.9375,0.0313 L 349.6875,565.25 c -0.78297,0.0389 -1.55787,0.0719 -2.375,0.0937 L 348.34375,585 c -0.64978,0.0338 -1.29067,0.0803 -1.9375,0.125 l -1.375,-19.59375 c -0.76209,0.0238 -1.53624,0.0822 -2.28125,0.1875 l 1.71875,19.5625 c -0.6762,0.0584 -1.3585,0.11729 -2.03125,0.1875 l -2.0625,-19.5625 c -0.72982,0.0749 -1.50113,0.15882 -2.28125,0.28125 l 2.40625,19.5 c -0.63854,0.0778 -1.27104,0.16165 -1.90625,0.25 l -2.75,-19.4375 c -0.77442,0.0978 -1.54194,0.20817 -2.28125,0.28125 l 3.09375,19.4375 c -0.65572,0.10281 -1.31681,0.22973 -1.96875,0.34375 L 331.28125,567.25 c -0.79436,0.0911 -1.55808,0.22695 -2.28125,0.375 l 3.75,19.28125 c -0.65241,0.12595 -1.28913,0.26915 -1.9375,0.40625 l -4.09375,-19.21875 c -0.78676,0.14805 -1.54479,0.3093 -2.28125,0.46875 l 4.4375,19.15625 c -0.65364,0.15029 -1.31949,0.3072 -1.96875,0.46875 l -4.75,-19.03125 c -0.74406,0.17367 -1.49544,0.36035 -2.28125,0.5625 l 5.09375,18.96875 c -0.61857,0.16566 -1.22941,0.32417 -1.84375,0.5 l -5.40625,-18.90625 c -0.75545,0.26098 -1.50018,0.47213 -2.28125,0.65625 l 5.78125,18.84375 c -0.63668,0.19458 -1.27439,0.3883 -1.90625,0.59375 L 313.25,571.71875 c -0.72223,0.21923 -1.46053,0.45485 -2.1875,0.75 L 317.4375,591 c -0.6139,0.21159 -1.23468,0.43445 -1.84375,0.65625 l -6.71875,-18.4375 c -0.73266,0.23631 -1.46148,0.49755 -2.1875,0.75 l 7.0625,18.375 c -0.63016,0.24217 -1.25033,0.49694 -1.875,0.75 l -7.375,-18.25 c -0.68711,0.31034 -1.37634,0.59394 -2.0625,0.9375 l 7.65625,18.0625 c -0.614,0.26105 -1.23536,0.50972 -1.84375,0.78125 l -8,-17.96875 c -0.67478,0.34356 -1.38386,0.65279 -2.09375,0.9375 l 8.3125,17.84375 c -0.59607,0.27854 -1.19089,0.55518 -1.78125,0.84375 l -8.625,-17.65625 c -0.691,0.33501 -1.3886,0.69807 -2.09375,1.0625 l 8.9375,17.5 c -0.59099,0.30206 -1.19632,0.59417 -1.78125,0.90625 l -9.25,-17.375 c -0.63501,0.37677 -1.28999,0.76334 -1.96875,1.15625 l 9.53125,17.15625 c -0.57587,0.32 -1.1491,0.63904 -1.71875,0.96875 l -9.8125,-17 c -0.69215,0.37108 -1.36499,0.74917 -2,1.125 l 10.125,16.84375 c -0.57501,0.34609 -1.15045,0.70653 -1.71875,1.0625 L 283.90625,585.375 c -0.66728,0.40999 -1.29512,0.81066 -1.96875,1.21875 l 10.71875,16.53125 c -0.55172,0.3592 -1.07999,0.72524 -1.625,1.09375 l -11,-16.28125 c -0.65095,0.39575 -1.29601,0.8192 -1.90625,1.21875 l 11.3125,16.15625 c -0.55638,0.39018 -1.10728,0.78762 -1.65625,1.1875 l -11.5625,-15.90625 c -0.63843,0.42043 -1.23658,0.86455 -1.875,1.3125 l 11.875,15.75 c -0.5177,0.39079 -1.05178,0.78808 -1.5625,1.1875 l -12.125,-15.5 c -0.62429,0.48116 -1.23861,0.97626 -1.8125,1.4375 l 12.375,15.28125 c -0.51866,0.42053 -1.02023,0.85179 -1.53125,1.28125 l -12.625,-15.0625 c -0.60503,0.47832 -1.20226,0.99314 -1.8125,1.53125 l 12.90625,14.8125 c -0.49419,0.43027 -0.98216,0.87385 -1.46875,1.3125 l -13.15625,-14.625 c -0.57608,0.50395 -1.1251,1.03964 -1.6875,1.53125 l 13.4375,14.40625 c -0.49081,0.4578 -0.98615,0.90864 -1.46875,1.375 L 262,602.46875 c -0.5327,0.55519 -1.09562,1.07747 -1.625,1.59375 L 274.28125,618 c -0.4669,0.4669 -0.91627,0.93128 -1.375,1.40625 l -14.125,-13.625 c -0.56611,0.53242 -1.11004,1.07272 -1.625,1.59375 l 14.4375,13.46875 c -0.45674,0.48941 -0.9269,0.97129 -1.375,1.46875 l -14.6875,-13.21875 c -0.48269,0.62068 -0.97613,1.20891 -1.5,1.8125 L 268.875,623.8125 c -0.42855,0.49298 -0.8299,0.99959 -1.25,1.5 L 252.5,612.625 c -0.46788,0.62638 -0.94208,1.20138 -1.40625,1.78125 l 15.28125,12.375 c -0.4089,0.50418 -0.8184,1.01995 -1.21875,1.53125 l -15.5,-12.09375 c -0.51828,0.64155 -1.00264,1.26279 -1.4375,1.90625 l 15.6875,11.8125 c -0.39177,0.51938 -0.77328,1.03621 -1.15625,1.5625 l -15.9375,-11.59375 c -0.44046,0.65959 -0.90444,1.29791 -1.34375,1.90625 l 16.125,11.3125 c -0.37113,0.52933 -0.76276,1.05783 -1.125,1.59375 l -16.3125,-11 c -0.42119,0.67762 -0.86412,1.32997 -1.25,2 l 16.46875,10.6875 c -0.35479,0.54547 -0.68566,1.10434 -1.03125,1.65625 l -16.75,-10.46875 c -0.36178,0.69091 -0.78328,1.3575 -1.15625,2 l 16.875,10.125 c -0.34648,0.57521 -0.69477,1.13694 -1.03125,1.71875 l -17.0625,-9.84375 c -0.35476,0.6947 -0.72165,1.37342 -1.125,2.09375 l 17.21875,9.53125 c -0.31156,0.56161 -0.63526,1.12008 -0.9375,1.6875 l -17.34375,-9.21875 c -0.3967,0.68237 -0.73978,1.34311 -1.125,2.0625 l 17.53125,8.9375 c -0.29927,0.58697 -0.58572,1.18842 -0.875,1.78125 l -17.71875,-8.625 c -0.29507,0.65104 -0.61644,1.35444 -0.9375,2.09375 l 17.8125,8.28125 c -0.2769,0.59333 -0.54564,1.18237 -0.8125,1.78125 l -17.9375,-7.96875 c -0.33254,0.68996 -0.66069,1.40474 -0.96875,2.09375 l 18.09375,7.6875 c -0.25346,0.59677 -0.47529,1.21053 -0.71875,1.8125 l -18.21875,-7.34375 c -0.31661,0.6985 -0.62065,1.42256 -0.875,2.1875 L 248.625,657.5 c -0.23057,0.60084 -0.46693,1.20678 -0.6875,1.8125 l -18.5,-6.75 c -0.24504,0.76683 -0.49385,1.50039 -0.75,2.1875 l 18.59375,6.40625 c -0.22139,0.64291 -0.44618,1.28941 -0.65625,1.9375 l -18.6875,-6.0625 c -0.21097,0.7004 -0.46656,1.4425 -0.6875,2.1875 l 18.8125,5.75 c -0.18858,0.61828 -0.38427,1.22103 -0.5625,1.84375 l -18.90625,-5.40625 c -0.2124,0.77727 -0.41083,1.49455 -0.65625,2.25 l 19.03125,5.09375 c -0.17141,0.64186 -0.33965,1.2912 -0.5,1.9375 l -19.09375,-4.75 c -0.15309,0.70894 -0.35878,1.46527 -0.5,2.1875 L 244,672.53125 c -0.15016,0.65228 -0.26742,1.31222 -0.40625,1.96875 l -19.28125,-4.09375 c -0.12603,0.77253 -0.2741,1.53435 -0.46875,2.28125 l 19.34375,3.75 c -0.12421,0.64299 -0.23047,1.29069 -0.34375,1.9375 l -19.375,-3.40625 c -0.13011,0.77538 -0.25305,1.54099 -0.375,2.28125 L 242.5,680.3125 c -0.10208,0.64973 -0.15902,1.3154 -0.25,1.96875 l -19.53125,-2.75 c -0.0697,0.8048 -0.19833,1.57305 -0.3125,2.375 l 19.5625,2.40625 c -0.0766,0.63359 -0.15265,1.26948 -0.21875,1.90625 l -19.625,-2.0625 c -0.0389,0.76019 -0.11043,1.5334 -0.1875,2.28125 l 19.625,1.71875 c -0.0584,0.67595 -0.10976,1.35196 -0.15625,2.03125 L 221.75,688.8125 c -0.0364,0.73266 -0.0827,1.50777 -0.0937,2.28125 l 19.625,1.03125 c -0.0331,0.64282 -0.0402,1.29189 -0.0625,1.9375 L 221.5625,693.375 c -0.0623,0.80954 -0.0815,1.58444 -0.0937,2.375 l 19.71875,0.34375 c -0.011,0.64858 -0.0313,1.28631 -0.0313,1.9375 l -19.6875,0 c -0.0216,0.79626 -0.0148,1.5721 0,2.375 l 19.71875,-0.34375 c 0.0115,0.64834 0.009,1.29186 0.0313,1.9375 l -19.65625,0.6875 c -0.009,0.78297 0.024,1.55787 0.0937,2.375 l 19.625,-1.03125 c 0.0331,0.63245 0.0816,1.27659 0.125,1.90625 l -19.65625,1.375 c 0.0715,0.76209 0.1297,1.53624 0.1875,2.28125 l 19.625,-1.71875 c 0.0588,0.68232 0.11667,1.35245 0.1875,2.03125 l -19.625,2.0625 c 0.12271,0.72982 0.20674,1.50113 0.28125,2.28125 L 242,711.84375 c 0.0785,0.64435 0.16075,1.29653 0.25,1.9375 l -19.53125,2.75 c 0.1453,0.77443 0.25485,1.54194 0.375,2.28125 L 242.5,715.75 c 0.10253,0.65261 0.23011,1.28864 0.34375,1.9375 l -19.375,3.40625 c 0.13828,0.79436 0.2745,1.55808 0.375,2.28125 l 19.34375,-3.75 c 0.12517,0.64792 0.27008,1.29357 0.40625,1.9375 l -19.28125,4.09375 c 0.19541,0.78677 0.35599,1.51354 0.5625,2.25 L 244,723.5 c 0.14747,0.64138 0.34168,1.26908 0.5,1.90625 l -19.125,4.78125 c 0.22094,0.74406 0.40751,1.49543 0.5625,2.28125 L 245,727.34375 c 0.16911,0.63241 0.32026,1.27826 0.5,1.90625 l -18.90625,5.40625 c 0.21354,0.75544 0.42525,1.50018 0.65625,2.28125 l 18.8125,-5.75 c 0.1886,0.61656 0.39495,1.23172 0.59375,1.84375 L 227.9375,739.125 c 0.26659,0.72222 0.50277,1.46053 0.75,2.1875 l 18.59375,-6.40625 c 0.21449,0.62288 0.43125,1.22584 0.65625,1.84375 l -18.5,6.71875 c 0.28358,0.73266 0.54385,1.46148 0.84375,2.1875 l 18.375,-7.0625 c 0.23952,0.6235 0.46857,1.25687 0.71875,1.875 l -18.21875,7.375 c 0.2625,0.68711 0.54793,1.40759 0.84375,2.09375 l 18.09375,-7.6875 c 0.26661,0.62773 0.56619,1.25314 0.84375,1.875 l -17.96875,8 c 0.2962,0.67478 0.60534,1.38387 0.9375,2.09375 l 17.84375,-8.3125 c 0.27169,0.58121 0.56253,1.14297 0.84375,1.71875 l -17.75,8.65625 c 0.38255,0.6909 0.7459,1.3886 1.0625,2.09375 l 17.5625,-8.9375 c 0.30672,0.60065 0.62043,1.18687 0.9375,1.78125 l -17.375,9.25 c 0.32922,0.63491 0.71657,1.32143 1.0625,2 l 17.25,-9.5625 c 0.31522,0.56739 0.61286,1.1574 0.9375,1.71875 l -17.0625,9.84375 c 0.41815,0.69185 0.79575,1.33384 1.21875,1.96875 l 16.84375,-10.125 c 0.34111,0.56678 0.68055,1.12724 1.03125,1.6875 l -16.71875,10.4375 c 0.45744,0.66718 0.85648,1.32618 1.3125,2 l 16.5,-10.71875 c 0.35267,0.54148 0.70087,1.08998 1.0625,1.625 l -16.3125,11 c 0.44339,0.65105 0.86502,1.26476 1.3125,1.875 l 16.125,-11.28125 c 0.38227,0.54522 0.76467,1.08689 1.15625,1.625 l -15.9375,11.5625 c 0.46826,0.63777 0.91056,1.26753 1.40625,1.90625 L 263.9375,766.1875 c 0.39832,0.52739 0.81147,1.04236 1.21875,1.5625 l -15.5,12.09375 c 0.43334,0.62448 0.92852,1.20707 1.4375,1.78125 L 266.375,769.25 c 0.4098,0.50551 0.83171,1.00175 1.25,1.5 L 252.5,783.4375 c 0.52606,0.60455 1.04078,1.20226 1.53125,1.8125 l 14.90625,-12.96875 c 0.42053,0.4832 0.8527,0.96155 1.28125,1.4375 l -14.6875,13.21875 c 0.55197,0.57607 1.08556,1.15596 1.625,1.71875 l 14.40625,-13.4375 c 0.45831,0.49127 0.90811,0.9857 1.375,1.46875 l -14.15625,13.6875 c 0.50755,0.53241 1.02991,1.06418 1.59375,1.59375 l 13.90625,-13.90625 c 0.45937,0.45937 0.93907,0.92354 1.40625,1.375 L 262,793.59375 c 0.5794,0.56563 1.15045,1.10967 1.71875,1.625 l 13.4375,-14.40625 c 0.48182,0.44941 0.94788,0.90271 1.4375,1.34375 l -13.1875,14.65625 c 0.57275,0.48307 1.16232,1.00737 1.71875,1.53125 l 12.9375,-14.875 c 0.50002,0.43501 1.02358,0.85494 1.53125,1.28125 l -12.65625,15.09375 c 0.57911,0.46788 1.15364,0.97341 1.78125,1.4375 L 283.09375,786 c 0.51728,0.41941 1.03773,0.80834 1.5625,1.21875 l -12.125,15.5 c 0.59392,0.51818 1.21639,0.97158 1.8125,1.40625 l 11.84375,-15.71875 c 0.53346,0.40287 1.08424,0.79392 1.625,1.1875 l -11.59375,15.96875 c 0.61242,0.44036 1.25008,0.87309 1.90625,1.3125 l 11.28125,-16.125 c 0.54669,0.38357 1.10253,0.75091 1.65625,1.125 l -11.03125,16.34375 c 0.63064,0.42138 1.28348,0.83248 1.90625,1.21875 l 10.71875,-16.5 c 0.5694,0.37071 1.14233,0.73307 1.71875,1.09375 l -10.46875,16.75 c 0.64355,0.36159 1.30975,0.75202 2,1.125 l 10.125,-16.84375 c 0.56958,0.34293 1.14269,0.69812 1.71875,1.03125 l -9.84375,17.0625 c 0.64687,0.35495 1.32675,0.72166 2,1.125 l 9.5625,-17.25 c 0.55387,0.30761 1.09672,0.63897 1.65625,0.9375 l -9.25,17.34375 c 0.72991,0.3967 1.42163,0.77093 2.09375,1.15625 l 8.96875,-17.5625 c 0.58443,0.29842 1.15976,0.58649 1.75,0.875 L 296.0625,817.5 c 0.69851,0.29516 1.40189,0.64797 2.09375,0.96875 l 8.3125,-17.84375 c 0.58985,0.27563 1.18591,0.5468 1.78125,0.8125 l -8,17.96875 c 0.73741,0.33217 1.45103,0.62906 2.1875,0.9375 L 310.125,802.25 c 0.57704,0.24508 1.1681,0.48302 1.75,0.71875 l -7.375,18.25 c 0.74595,0.31698 1.47001,0.58941 2.1875,0.84375 l 7.0625,-18.34375 c 0.61691,0.23708 1.22169,0.46097 1.84375,0.6875 l -6.71875,18.5 c 0.71938,0.24485 1.45293,0.52501 2.1875,0.78125 l 6.40625,-18.59375 c 0.61708,0.21244 1.25315,0.39173 1.875,0.59375 l -6.09375,18.75 c 0.74785,0.21069 1.48994,0.43512 2.1875,0.65625 l 5.75,-18.8125 c 0.64767,0.19813 1.28495,0.40698 1.9375,0.59375 l -5.40625,18.90625 c 0.73077,0.21259 1.44825,0.41044 2.15625,0.65625 L 325,807.375 c 0.64311,0.17204 1.28993,0.33905 1.9375,0.5 L 322.15625,827 c 0.75639,0.15279 1.51157,0.32734 2.28125,0.46875 l 4.4375,-19.125 c 0.64243,0.14771 1.29095,0.26953 1.9375,0.40625 l -4.09375,19.28125 c 0.72508,0.12622 1.48689,0.30544 2.28125,0.5 l 3.75,-19.375 c 0.6472,0.12495 1.28642,0.22988 1.9375,0.34375 l -3.40625,19.40625 c 0.72792,0.13002 1.49354,0.25257 2.28125,0.375 l 3.09375,-19.4375 c 0.64402,0.10098 1.28992,0.19118 1.9375,0.28125 l -2.75,19.53125 c 0.75735,0.0692 1.49551,0.16737 2.25,0.28125 L 340.5,810.375 c 0.64449,0.0785 1.28971,0.15115 1.9375,0.21875 l -2.0625,19.625 c 0.80764,0.0389 1.5797,0.11062 2.375,0.1875 l 1.71875,-19.625 c 0.64388,0.0556 1.29058,0.1115 1.9375,0.15625 l -1.375,19.65625 c 0.78012,0.0361 1.55523,0.0824 2.28125,0.0937 l 1.03125,-19.625 c 0.67445,0.0351 1.35372,0.0705 2.03125,0.0937 l -0.6875,19.625 c 0.76208,0.0626 1.53814,0.1127 2.28125,0.125 l 0.34375,-19.71875 c 0.67262,0.0118 1.35582,0.0313 2.03125,0.0313 l 0,19.6875 c 0.7488,0.0218 1.5258,0.0152 2.28125,0 l -0.34375,-19.71875 c 0.67967,-0.0115 1.35454,-0.008 2.03125,-0.0313 l 0.6875,19.625 c 0.73551,0.009 1.51157,-0.0245 2.28125,-0.0937 L 360.25,811.0625 c 0.63943,-0.0329 1.26967,-0.0815 1.90625,-0.125 l 1.375,19.65625 c 0.80954,-0.0711 1.58254,-0.12961 2.375,-0.1875 l -1.71875,-19.625 c 0.64508,-0.0557 1.29556,-0.12104 1.9375,-0.1875 l 2.0625,19.625 c 0.77727,-0.12243 1.54859,-0.20627 2.28125,-0.28125 l -2.375,-19.5625 c 0.66948,-0.0811 1.33418,-0.15721 2,-0.25 l 2.75,19.53125 c 0.72697,-0.14521 1.49449,-0.25447 2.28125,-0.375 L 372.03125,809.8125 C 372.68522,809.70975 373.3498,809.6139 374,809.5 l 3.40625,19.40625 c 0.7469,-0.13857 1.51062,-0.2744 2.28125,-0.375 l -3.75,-19.375 c 0.64792,-0.12517 1.29357,-0.27008 1.9375,-0.40625 l 4.09375,19.28125 c 0.73931,-0.1955 1.46609,-0.35561 2.25,-0.5625 l -4.40625,-19.125 c 0.62072,-0.14272 1.22698,-0.31587 1.84375,-0.46875 l 4.75,19.125 c 0.79151,-0.22113 1.54289,-0.40781 2.28125,-0.5625 l -5.09375,-19.03125 c 0.64995,-0.17345 1.29221,-0.34658 1.9375,-0.53125 l 5.4375,18.90625 c 0.708,-0.21354 1.45389,-0.45689 2.1875,-0.6875 l -5.75,-18.78125 c 0.62987,-0.19212 1.24984,-0.39099 1.875,-0.59375 l 6.0625,18.71875 c 0.76968,-0.26668 1.50683,-0.5023 2.28125,-0.75 l -6.40625,-18.625 c 0.6139,-0.21159 1.23468,-0.43445 1.84375,-0.65625 l 6.75,18.5 c 0.68521,-0.28377 1.38393,-0.54385 2.0625,-0.84375 L 394.84375,803.75 c 0.63041,-0.2417 1.25008,-0.49741 1.875,-0.75 l 7.34375,18.21875 c 0.73456,-0.26289 1.45388,-0.57889 2.1875,-0.875 l -7.6875,-18.125 c 0.59261,-0.25195 1.19387,-0.48828 1.78125,-0.75 l 8,17.9375 c 0.72223,-0.2961 1.43131,-0.60533 2.09375,-0.9375 l -8.3125,-17.8125 c 0.59604,-0.27807 1.19092,-0.55565 1.78125,-0.84375 L 412.5,817.5 c 0.73836,-0.38246 1.43606,-0.71427 2.09375,-1.03125 l -8.9375,-17.53125 c 0.60408,-0.30799 1.21474,-0.61904 1.8125,-0.9375 l 9.21875,17.3125 c 0.68236,-0.32932 1.36888,-0.68579 2,-1.03125 l -9.53125,-17.21875 c 0.58862,-0.32662 1.16787,-0.66325 1.75,-1 l 9.875,17.09375 c 0.6444,-0.41853 1.28638,-0.82673 1.96875,-1.25 L 412.625,795.0625 c 0.55549,-0.33445 1.10702,-0.68758 1.65625,-1.03125 l 10.46875,16.75 c 0.61973,-0.45745 1.27988,-0.88821 1.90625,-1.34375 l -10.6875,-16.46875 c 0.55394,-0.3603 1.10907,-0.72408 1.65625,-1.09375 l 11.03125,16.34375 c 0.6036,-0.4432 1.21731,-0.89675 1.875,-1.34375 L 419.25,790.75 c 0.53608,-0.37608 1.06455,-0.77117 1.59375,-1.15625 l 11.59375,15.96875 c 0.59126,-0.46788 1.22124,-0.9421 1.8125,-1.4375 l -11.8125,-15.6875 c 0.53424,-0.40298 1.06694,-0.80658 1.59375,-1.21875 l 12.125,15.5 c 0.57702,-0.43372 1.15962,-0.92881 1.78125,-1.4375 L 425.5625,786 c 0.50731,-0.41132 1,-0.83013 1.5,-1.25 l 12.6875,15.09375 c 0.55709,-0.52577 1.15596,-1.00934 1.71875,-1.5 L 428.5625,783.5 c 0.5056,-0.43952 1.00233,-0.89546 1.5,-1.34375 L 443.25,796.8125 c 0.52863,-0.55235 1.10851,-1.05469 1.71875,-1.59375 l -13.4375,-14.40625 c 0.4797,-0.44761 0.9344,-0.9192 1.40625,-1.375 l 13.65625,14.15625 c 0.57987,-0.50774 1.11048,-1.06126 1.6875,-1.625 L 434.375,778.0625 c 0.46174,-0.46174 0.89,-0.93662 1.34375,-1.40625 l 14.1875,13.71875 c 0.51913,-0.57987 1.06221,-1.15027 1.625,-1.71875 L 437.125,775.21875 c 0.43994,-0.47168 0.88058,-0.95835 1.3125,-1.4375 l 14.59375,13.15625 c 0.53052,-0.57323 1.05483,-1.13136 1.53125,-1.6875 l -14.84375,-12.9375 c 0.43902,-0.50422 0.85107,-1.01924 1.28125,-1.53125 l 15.0625,12.65625 c 0.51534,-0.57892 1.01972,-1.18518 1.53125,-1.8125 l -15.3125,-12.375 c 0.41292,-0.50936 0.8458,-1.01464 1.25,-1.53125 l 15.5,12.125 c 0.47073,-0.5941 0.92413,-1.2165 1.40625,-1.8125 l -15.71875,-11.875 c 0.39706,-0.52596 0.76822,-1.06069 1.15625,-1.59375 l 15.90625,11.5625 c 0.48781,-0.61213 0.91939,-1.25045 1.40625,-1.90625 l -16.125,-11.28125 c 0.36773,-0.5245 0.73474,-1.06278 1.09375,-1.59375 l 16.28125,11 c 0.46883,-0.63017 0.87879,-1.28367 1.3125,-1.90625 l -16.5,-10.71875 c 0.36772,-0.5646 0.70464,-1.14724 1.0625,-1.71875 L 467,768.4375 c 0.40904,-0.64346 0.79833,-1.31004 1.21875,-2 L 451.375,756.3125 c 0.33231,-0.55213 0.6769,-1.09804 1,-1.65625 l 17,9.8125 c 0.40239,-0.64726 0.7691,-1.32712 1.125,-2 l -17.1875,-9.53125 c 0.3173,-0.57073 0.62984,-1.14202 0.9375,-1.71875 l 17.375,9.25 c 0.34925,-0.72982 0.72464,-1.42183 1.0625,-2.09375 l -17.5,-8.9375 c 0.29962,-0.58676 0.58537,-1.18863 0.875,-1.78125 l 17.65625,8.625 c 0.34261,-0.69851 0.69426,-1.37064 1.0625,-2.0625 L 456.9375,745.875 c 0.2726,-0.58365 0.54961,-1.16098 0.8125,-1.75 l 17.96875,8 c 0.28471,-0.73741 0.58276,-1.45104 0.84375,-2.1875 l -18.03125,-7.65625 c 0.25536,-0.60063 0.50477,-1.2066 0.75,-1.8125 l 18.25,7.375 c 0.26953,-0.74595 0.54195,-1.47001 0.84375,-2.1875 L 460,738.59375 c 0.23558,-0.61324 0.49359,-1.22543 0.71875,-1.84375 l 18.40625,6.71875 c 0.29231,-0.71938 0.57246,-1.42168 0.78125,-2.15625 L 461.375,734.90625 c 0.21075,-0.61201 0.4245,-1.22704 0.625,-1.84375 l 18.65625,6.0625 c 0.25814,-0.74785 0.48142,-1.48995 0.75,-2.1875 l -18.8125,-5.75 c 0.20083,-0.65652 0.37335,-1.30721 0.5625,-1.96875 l 18.9375,5.4375 c 0.16513,-0.73077 0.36415,-1.47951 0.5625,-2.1875 l -19,-5.09375 c 0.17178,-0.6417 0.33927,-1.29136 0.5,-1.9375 l 19.0625,4.75 c 0.20025,-0.75639 0.37364,-1.51157 0.5625,-2.28125 L 464.65625,723.5 c 0.14771,-0.64243 0.26953,-1.29095 0.40625,-1.9375 l 19.1875,4.09375 c 0.17367,-0.72507 0.3529,-1.48689 0.5,-2.28125 l -19.3125,-3.75 c 0.12462,-0.64489 0.26138,-1.28876 0.375,-1.9375 l 19.3125,3.40625 c 0.17747,-0.72792 0.29887,-1.49354 0.46875,-2.28125 l -19.4375,-3.09375 c 0.10031,-0.63957 0.16045,-1.29442 0.25,-1.9375 l 19.46875,2.75 c 0.11674,-0.75734 0.21481,-1.52675 0.28125,-2.28125 l -19.5,-2.40625 c 0.0785,-0.6449 0.18236,-1.2893 0.25,-1.9375 l 19.53125,2.0625 c 0.0864,-0.80764 0.15808,-1.5797 0.1875,-2.375 L 467.09375,707.875 c 0.0556,-0.64512 0.11154,-1.28933 0.15625,-1.9375 l 19.5625,1.375 c 0.0835,-0.78011 0.12866,-1.52397 0.1875,-2.25 l -19.625,-1.03125 c 0.0353,-0.67365 0.0391,-1.35453 0.0625,-2.03125 l 19.6875,0.6875 c 0.0152,-0.76209 0.034,-1.53909 0.0937,-2.28125 L 467.5,700.0625 c 0.012,-0.6797 0.0313,-1.34868 0.0313,-2.03125 l 19.6875,0 c -0.0128,-0.37439 -0.0303,-0.77485 -0.0313,-1.15625 -7.6e-4,-0.38139 0.0154,-0.74728 0.0313,-1.125 L 467.5,696.09375 c -0.0115,-0.67996 -0.0391,-1.35426 -0.0625,-2.03125 l 19.6875,-0.6875 c -0.0389,-0.73552 -0.1031,-1.51157 -0.125,-2.28125 l -19.625,1.03125 c -0.0331,-0.64291 -0.0812,-1.29747 -0.125,-1.9375 l 19.5625,-1.375 c -0.0238,-0.80954 -0.0822,-1.58254 -0.1875,-2.375 l -19.53125,1.71875 c -0.0563,-0.65115 -0.12024,-1.28955 -0.1875,-1.9375 l 19.53125,-2.0625 c -0.0749,-0.77727 -0.15882,-1.51733 -0.28125,-2.25 l -19.46875,2.375 c -0.0807,-0.66619 -0.18899,-1.33743 -0.28125,-2 l 19.46875,-2.75 c -0.0977,-0.72697 -0.20818,-1.49448 -0.28125,-2.28125 l -19.4375,3.09375 c -0.10396,-0.66289 -0.22833,-1.30973 -0.34375,-1.96875 l 19.3125,-3.40625 c -0.0911,-0.7469 -0.22695,-1.51062 -0.375,-2.28125 l -19.3125,3.75 c -0.12483,-0.64599 -0.23924,-1.29547 -0.375,-1.9375 l 19.1875,-4.09375 c -0.14806,-0.73931 -0.30931,-1.49733 -0.46875,-2.28125 l -19.125,4.4375 c -0.14463,-0.62902 -0.31369,-1.25003 -0.46875,-1.875 l 19.03125,-4.75 c -0.17368,-0.79151 -0.36035,-1.54289 -0.5625,-2.28125 l -19,5.09375 c -0.16893,-0.6324 -0.32044,-1.27826 -0.5,-1.90625 l 18.9375,-5.4375 c -0.26099,-0.708 -0.50433,-1.45388 -0.6875,-2.1875 l -18.78125,5.75 c -0.19199,-0.62962 -0.42238,-1.25009 -0.625,-1.875 l 18.65625,-6.0625 c -0.21923,-0.76968 -0.45484,-1.50682 -0.75,-2.28125 l -18.53125,6.40625 c -0.21772,-0.63227 -0.42769,-1.24786 -0.65625,-1.875 L 479.125,652.5625 c -0.23631,-0.68522 -0.49755,-1.41518 -0.75,-2.09375 L 460.03125,657.5 c -0.23578,-0.61442 -0.47262,-1.23454 -0.71875,-1.84375 l 18.21875,-7.375 c -0.31034,-0.73456 -0.62519,-1.42264 -0.96875,-2.15625 l -18.03125,7.65625 c -0.25195,-0.59261 -0.48828,-1.19387 -0.75,-1.78125 l 17.9375,-7.96875 c -0.34356,-0.72223 -0.65279,-1.43132 -0.9375,-2.09375 l -17.8125,8.3125 c -0.28407,-0.6092 -0.58046,-1.20926 -0.875,-1.8125 l 17.625,-8.59375 c -0.33501,-0.73837 -0.66681,-1.43606 -1.03125,-2.09375 l -17.5,8.90625 c -0.30016,-0.58816 -0.59617,-1.16784 -0.90625,-1.75 L 471.625,635.6875 c -0.37677,-0.68236 -0.7321,-1.36888 -1.125,-2 l -17.15625,9.5 c -0.32761,-0.59013 -0.63096,-1.19765 -0.96875,-1.78125 l 17,-9.8125 c -0.37108,-0.64441 -0.78042,-1.31763 -1.15625,-2 l -16.875,10.125 c -0.34092,-0.56595 -0.68077,-1.12806 -1.03125,-1.6875 L 467,627.59375 c -0.40999,-0.61973 -0.84191,-1.24863 -1.25,-1.875 l -16.46875,10.6875 c -0.36816,-0.56604 -0.74705,-1.12852 -1.125,-1.6875 l 16.28125,-11 c -0.39575,-0.60359 -0.85044,-1.24856 -1.25,-1.90625 l -16.125,11.3125 c -0.39067,-0.55721 -0.7871,-1.10646 -1.1875,-1.65625 l 15.90625,-11.5625 c -0.42043,-0.59126 -0.8958,-1.19 -1.34375,-1.78125 L 444.75,629.9375 c -0.40298,-0.53424 -0.80658,-1.06694 -1.21875,-1.59375 l 15.5,-12.125 c -0.48116,-0.57703 -0.97626,-1.19087 -1.4375,-1.8125 l -15.3125,12.40625 c -0.4191,-0.51697 -0.85328,-1.02187 -1.28125,-1.53125 L 456.0625,612.625 c -0.47832,-0.55804 -0.96189,-1.15596 -1.5,-1.71875 l -14.8125,12.875 c -0.44307,-0.50927 -0.89178,-0.99879 -1.34375,-1.5 l 14.625,-13.1875 c -0.5049,-0.52862 -1.00839,-1.10851 -1.5,-1.71875 l -14.4375,13.46875 c -0.44091,-0.47254 -0.8949,-0.94133 -1.34375,-1.40625 l 14.15625,-13.65625 c -0.55519,-0.57987 -1.10871,-1.14267 -1.625,-1.71875 L 434.375,618 c -0.46462,-0.46462 -0.9649,-0.91848 -1.4375,-1.375 l 13.65625,-14.15625 c -0.53147,-0.51913 -1.10398,-1.06221 -1.625,-1.625 L 431.53125,615.25 c -0.4766,-0.44472 -0.95327,-0.87597 -1.4375,-1.3125 L 443.25,599.3125 c -0.62068,-0.53052 -1.17766,-1.02358 -1.78125,-1.5 l -12.875,14.8125 c -0.49414,-0.43005 -0.99838,-0.85969 -1.5,-1.28125 L 439.75,596.28125 c -0.62638,-0.51533 -1.23263,-0.98846 -1.8125,-1.5 l -12.375,15.28125 c -0.51148,-0.41471 -1.01245,-0.81284 -1.53125,-1.21875 l 12.125,-15.5 c -0.64156,-0.47073 -1.26279,-0.95538 -1.90625,-1.4375 L 422.40625,607.625 c -0.5066,-0.38196 -1.01808,-0.78266 -1.53125,-1.15625 l 11.5625,-15.875 c -0.65959,-0.48781 -1.29791,-0.95063 -1.90625,-1.4375 L 419.25,605.3125 c -0.53285,-0.37382 -1.05421,-0.72894 -1.59375,-1.09375 l 11,-16.28125 c -0.67762,-0.46883 -1.32997,-0.91003 -2,-1.34375 l -10.71875,16.5 c -0.53349,-0.34682 -1.0541,-0.72448 -1.59375,-1.0625 L 424.75,585.375 c -0.69091,-0.40904 -1.35749,-0.82957 -2,-1.25 l -10.125,16.84375 c -0.54091,-0.32557 -1.1095,-0.62077 -1.65625,-0.9375 L 420.78125,583 c -0.69471,-0.4024 -1.37247,-0.76911 -2.09375,-1.125 l -9.5,17.15625 c -0.5741,-0.31884 -1.13858,-0.65966 -1.71875,-0.96875 l 9.21875,-17.34375 c -0.68237,-0.34925 -1.37437,-0.69339 -2.09375,-1.03125 l -8.875,17.46875 c -0.6053,-0.30908 -1.20096,-0.60781 -1.8125,-0.90625 L 412.5,578.625 c -0.65105,-0.34261 -1.32319,-0.66302 -2.0625,-1.03125 l -8.3125,17.8125 c -0.59,-0.27526 -1.18577,-0.54717 -1.78125,-0.8125 l 8,-17.9375 c -0.68996,-0.28471 -1.40474,-0.61401 -2.09375,-0.875 l -7.65625,18.0625 c -0.62523,-0.26601 -1.24407,-0.52623 -1.875,-0.78125 l 7.34375,-18.21875 c -0.6985,-0.26953 -1.42256,-0.5732 -2.1875,-0.875 l -7.03125,18.34375 c -0.58058,-0.22259 -1.16487,-0.44299 -1.75,-0.65625 l 6.71875,-18.4375 c -0.76683,-0.29231 -1.50039,-0.54121 -2.1875,-0.75 L 391.25,591 c -0.65577,-0.22621 -1.30759,-0.44182 -1.96875,-0.65625 l 6.0625,-18.625 c -0.7004,-0.25814 -1.44249,-0.51267 -2.1875,-0.78125 l -5.75,18.8125 c -0.61921,-0.18887 -1.25134,-0.38402 -1.875,-0.5625 l 5.4375,-18.90625 c -0.77822,-0.16514 -1.5258,-0.36415 -2.28125,-0.5625 l -5.0625,18.9375 c -0.64382,-0.172 -1.28922,-0.30787 -1.9375,-0.46875 l 4.71875,-19.03125 c -0.70894,-0.20025 -1.46527,-0.40489 -2.1875,-0.59375 l -4.4375,19.15625 c -0.63258,-0.14526 -1.26967,-0.27164 -1.90625,-0.40625 l 4.09375,-19.21875 c -0.77253,-0.17368 -1.53435,-0.32164 -2.28125,-0.46875 l -3.75,19.3125 c -0.64354,-0.12435 -1.29012,-0.2616 -1.9375,-0.375 l 3.40625,-19.3125 c -0.77538,-0.17747 -1.54099,-0.29887 -2.28125,-0.46875 L 372.03125,586.25 c -0.64557,-0.10143 -1.28835,-0.22203 -1.9375,-0.3125 l 2.75,-19.4375 c -0.80479,-0.11673 -1.57305,-0.24607 -2.375,-0.3125 l -2.375,19.5 c -0.65487,-0.0794 -1.31049,-0.1506 -1.96875,-0.21875 l 2.0625,-19.5625 c -0.76019,-0.0864 -1.5334,-0.15807 -2.28125,-0.1875 l -1.71875,19.5625 c -0.66456,-0.0574 -1.33221,-0.11042 -2,-0.15625 l 1.34375,-19.59375 c -0.73267,-0.0835 -1.47652,-0.12865 -2.25,-0.1875 L 360.25,585 c -0.64332,-0.0331 -1.29138,-0.0714 -1.9375,-0.0937 L 359,565.25 c -0.80954,-0.0152 -1.58444,-0.034 -2.375,-0.0937 l -0.34375,19.71875 c -0.64858,-0.0109 -1.28631,-0.0313 -1.9375,-0.0313 l 0,-19.6875 c -0.79626,0.0256 -1.5721,0.0323 -2.375,0 z m 2.375,87.65625 c 24.96961,0 45.1875,20.24914 45.1875,45.21875 0,24.96961 -20.21789,45.21875 -45.1875,45.21875 -24.96961,0 -45.21875,-20.24914 -45.21875,-45.21875 0,-24.96961 20.24914,-45.21875 45.21875,-45.21875 z"
       id="path3133-3"
       style="fill:#231f20;fill-opacity:0;fill-rule:nonzero;stroke:#000000;stroke-width:0.35433072;stroke-miterlimit:4;stroke-opacity:1;stroke-dasharray:none" />
  </g>
</svg>
