<?xml version="1.0" encoding="UTF-8" standalone="no"?>
<!-- Created with Inkscape (http://www.inkscape.org/) -->

<svg
   xmlns:dc="http://purl.org/dc/elements/1.1/"
   xmlns:cc="http://creativecommons.org/ns#"
   xmlns:rdf="http://www.w3.org/1999/02/22-rdf-syntax-ns#"
   xmlns:svg="http://www.w3.org/2000/svg"
   xmlns="http://www.w3.org/2000/svg"
   version="1.1"
   width="744.09448"
   height="1052.3622"
   id="svg2">
  <defs
     id="defs4">
    <clipPath
       id="clipPath3071">
      <path
         d="m 0,0 5950,0 0,7920 L 0,7920 0,0 z"
         id="path3073" />
    </clipPath>
    <clipPath
       id="clipPath3296">
      <path
         d="m 0,0 5950,0 0,7920 L 0,7920 0,0 z"
         id="path3298" />
    </clipPath>
    <clipPath
       id="clipPath4655">
      <path
         d="m 0,0 5950,0 0,7920 L 0,7920 0,0 z"
         id="path4657" />
    </clipPath>
  </defs>
  <metadata
     id="metadata7">
    <rdf:RDF>
      <cc:Work
         rdf:about="">
        <dc:format>image/svg+xml</dc:format>
        <dc:type
           rdf:resource="http://purl.org/dc/dcmitype/StillImage" />
        <dc:title></dc:title>
      </cc:Work>
    </rdf:RDF>
  </metadata>
  <g
     id="layer1">
    <path
       d="m 354.34375,565.15625 c -1.18349,0.0285 -2.362,0.0426 -3.53125,0.0937 l 0.53125,19.625 c -1.00236,0.0259 -2.00429,0.0732 -3,0.125 l -1.03125,-19.65625 c -1.11231,0.0816 -2.25882,0.15408 -3.40625,0.28125 l 1.53125,19.5625 c -1.00076,0.0778 -2.00671,0.17759 -3,0.28125 l -2.0625,-19.5625 c -1.11326,0.11863 -2.25503,0.24973 -3.40625,0.375 l 2.5625,19.53125 c -0.96315,0.12573 -1.91962,0.25646 -2.875,0.40625 l -3.09375,-19.4375 c -1.16925,0.23252 -2.33278,0.42088 -3.4375,0.65625 l 3.59375,19.3125 c -0.97913,0.18012 -1.93611,0.35735 -2.90625,0.5625 l -4.09375,-19.21875 c -1.16451,0.23062 -2.28445,0.47762 -3.40625,0.75 l 4.59375,19.125 c -0.97924,0.23428 -1.96834,0.4592 -2.9375,0.71875 L 319.875,569.71875 c -1.08004,0.30085 -2.18691,0.60342 -3.3125,0.9375 L 322.15625,589.5 c -0.95302,0.28217 -1.9014,0.56859 -2.84375,0.875 L 313.25,571.71875 c -1.08953,0.34167 -2.20961,0.69981 -3.34375,1.125 l 6.5625,18.5 c -0.91467,0.3246 -1.81507,0.65271 -2.71875,1 l -7.0625,-18.375 c -1.07719,0.44227 -2.1463,0.88725 -3.21875,1.34375 L 311,593.46875 c -0.9174,0.38067 -1.84497,0.75233 -2.75,1.15625 l -8,-17.96875 c -1.02689,0.503 -2.10373,0.97042 -3.15625,1.5 l 8.46875,17.71875 c -0.8972,0.42903 -1.77231,0.86072 -2.65625,1.3125 l -8.9375,-17.5 c -1.01541,0.51535 -2.03587,1.0357 -3.03125,1.59375 l 9.375,17.25 c -0.87504,0.47605 -1.73286,0.97047 -2.59375,1.46875 l -9.8125,-17 c -1.02547,0.56659 -2.01622,1.16808 -3.03125,1.8125 l 10.25,16.71875 c -0.83448,0.51299 -1.64878,1.0599 -2.46875,1.59375 l -10.75,-16.53125 c -0.94537,0.64632 -1.90616,1.29885 -2.84375,1.90625 l 11.15625,16.25 c -0.82427,0.56768 -1.62922,1.16123 -2.4375,1.75 l -11.5625,-15.90625 c -0.94906,0.65011 -1.87466,1.34968 -2.84375,2.09375 l 12,15.59375 c -0.76712,0.59017 -1.52987,1.17204 -2.28125,1.78125 l -12.375,-15.28125 c -0.9261,0.75734 -1.81652,1.4708 -2.65625,2.25 l 12.75,14.9375 c -0.75562,0.64612 -1.5118,1.30327 -2.25,1.96875 l -13.15625,-14.625 c -0.86157,0.7649 -1.7128,1.555 -2.5625,2.375 l 13.5625,14.28125 c -0.69946,0.66452 -1.41144,1.34921 -2.09375,2.03125 l -0.0313,0 -13.90625,-13.9375 c -0.83528,0.8523 -1.64534,1.6828 -2.46875,2.5625 l 14.28125,13.53125 c -0.66851,0.70499 -1.31839,1.43425 -1.96875,2.15625 l -14.6875,-13.21875 c -0.73923,0.9092 -1.50719,1.78025 -2.28125,2.65625 l 15,12.8125 c -0.63484,0.7431 -1.25925,1.49044 -1.875,2.25 l -15.3125,-12.40625 c -0.74996,0.9235 -1.44112,1.8313 -2.15625,2.75 l 15.625,11.96875 c -0.60465,0.78672 -1.19701,1.57213 -1.78125,2.375 l -15.9375,-11.59375 c -0.66549,0.9747 -1.34154,1.9487 -2,2.875 l 16.21875,11.15625 c -0.56001,0.81364 -1.11716,1.63993 -1.65625,2.46875 l -16.46875,-10.6875 c -0.66397,0.952 -1.25963,1.9277 -1.875,2.9375 l 16.75,10.25 c -0.51519,0.83943 -1.00628,1.67754 -1.5,2.53125 l -17.0625,-9.84375 c -0.54534,1.0307 -1.12263,2.03665 -1.71875,3.03125 l 17.34375,9.40625 c -0.48033,0.88292 -0.94894,1.75932 -1.40625,2.65625 L 235.90625,637.75 c -0.48934,1.0032 -1.01515,2.06765 -1.53125,3.15625 l 17.75,8.46875 c -0.42116,0.88306 -0.81999,1.76074 -1.21875,2.65625 l -17.96875,-8 c -0.48716,1.044 -0.92763,2.1029 -1.40625,3.125 L 249.75,654.6875 c -0.38559,0.92933 -0.76366,1.87087 -1.125,2.8125 l -18.34375,-7.03125 c -0.43563,1.0402 -0.82204,2.151 -1.21875,3.25 l 18.53125,6.5625 c -0.33076,0.93509 -0.66205,1.86631 -0.96875,2.8125 l -18.71875,-6.0625 c -0.32772,1.0686 -0.65903,2.167 -1.03125,3.3125 l 18.875,5.59375 c -0.27471,0.931 -0.53001,1.87168 -0.78125,2.8125 l -19.03125,-5.09375 c -0.25207,1.1124 -0.55839,2.25805 -0.875,3.34375 l 19.1875,4.59375 c -0.23088,0.96474 -0.45025,1.93209 -0.65625,2.90625 l -19.28125,-4.09375 c -0.20358,1.1513 -0.42155,2.27875 -0.65625,3.40625 l 19.375,3.59375 c -0.17877,0.97061 -0.37742,1.92713 -0.53125,2.90625 L 223.09375,677.25 c -0.17758,1.1693 -0.3695,2.3051 -0.5,3.5 l 19.5,2.5625 c -0.12519,0.96359 -0.24296,1.9352 -0.34375,2.90625 l -19.625,-2.0625 c -0.0764,1.1454 -0.17894,2.3204 -0.28125,3.4375 l 19.625,1.5625 c -0.0759,0.97914 -0.13672,1.98278 -0.1875,2.96875 l -19.625,-1.03125 c -0.0871,1.1559 -0.13036,2.33445 -0.1875,3.53125 l 19.71875,0.5 c -0.0246,0.9708 -0.0313,1.92952 -0.0313,2.90625 l -19.6875,0 c -0.0185,1.1834 -0.003,2.3308 0,3.5 L 241.1875,701 c 0.0262,1.01218 0.0411,2.02585 0.0937,3.03125 l -19.625,1.03125 c 0.0341,1.1122 0.10778,2.25885 0.1875,3.40625 l 19.625,-1.5625 c 0.0783,1.01045 0.1766,1.99716 0.28125,3 l -19.625,2.0625 c 0.16609,1.1132 0.2964,2.2862 0.46875,3.4375 l 19.53125,-2.5625 c 0.12634,0.966 0.22446,1.94807 0.375,2.90625 l -19.40625,3.0625 c 0.18497,1.1693 0.37458,2.30145 0.5625,3.40625 l 19.375,-3.59375 c 0.18045,0.98123 0.35692,1.9653 0.5625,2.9375 l -19.28125,4.09375 c 0.27883,1.1645 0.52535,2.28445 0.75,3.40625 l 19.1875,-4.59375 c 0.23051,0.96319 0.49504,1.92155 0.75,2.875 l -19.0625,5.125 c 0.34812,1.08 0.65126,2.21815 0.9375,3.34375 l 18.90625,-5.59375 c 0.27933,0.94357 0.57191,1.87938 0.875,2.8125 l -18.75,6.09375 c 0.38892,1.0895 0.7788,2.1783 1.15625,3.3125 l 18.5625,-6.59375 c 0.32771,0.92464 0.68036,1.83658 1.03125,2.75 l -18.375,7.0625 c 0.39519,1.0771 0.84105,2.1775 1.25,3.25 L 249.75,741.375 c 0.3814,0.91922 0.78276,1.84319 1.1875,2.75 l -18,8 c 0.45603,1.0269 0.95518,2.0724 1.4375,3.125 l 17.78125,-8.46875 c 0.42544,0.89003 0.86467,1.77926 1.3125,2.65625 l -17.5625,8.9375 c 0.56317,1.0155 1.08363,2.0668 1.59375,3.0625 l 17.34375,-9.40625 c 0.46979,0.86355 0.94606,1.74398 1.4375,2.59375 l -17.0625,9.84375 c 0.61394,1.025 1.216,2.01575 1.8125,3.03125 l 16.8125,-10.3125 c 0.52007,0.84638 1.02098,1.69979 1.5625,2.53125 l -16.5,10.71875 c 0.59877,0.9453 1.2512,1.90605 1.90625,2.84375 L 261.03125,762.125 c 0.56337,0.81852 1.13459,1.63473 1.71875,2.4375 l -15.9375,11.5625 c 0.69776,0.9491 1.39714,1.87475 2.09375,2.84375 l 15.65625,-12 c 0.59058,0.76781 1.20284,1.52921 1.8125,2.28125 l -15.3125,12.375 c 0.70962,0.9263 1.45567,1.8476 2.1875,2.6875 l 15,-12.8125 c 0.64722,0.75759 1.30208,1.5099 1.96875,2.25 l -14.6875,13.21875 c 0.81259,0.8608 1.60198,1.7131 2.375,2.5625 l 14.3125,-13.59375 c 0.68385,0.72061 1.36008,1.42258 2.0625,2.125 L 260.375,792 c 0.80452,0.8352 1.63614,1.6137 2.46875,2.4375 L 276.4375,780.125 c 0.71991,0.68342 1.41858,1.36677 2.15625,2.03125 l -13.1875,14.65625 c 0.86194,0.7393 1.73242,1.50685 2.65625,2.28125 L 280.84375,784.125 c 0.74269,0.63456 1.49088,1.25951 2.25,1.875 l -12.375,15.28125 c 0.87599,0.7498 1.78538,1.4719 2.65625,2.1875 l 12.03125,-15.65625 c 0.78695,0.60495 1.60314,1.19672 2.40625,1.78125 l -11.59375,15.96875 c 0.92686,0.6653 1.87019,1.3413 2.84375,2 l 11.15625,-16.25 c 0.80837,0.55673 1.61412,1.08893 2.4375,1.625 l -10.75,16.5 c 0.99947,0.6643 2.00668,1.29125 2.96875,1.90625 l 10.28125,-16.78125 c 0.85127,0.52287 1.72778,1.03047 2.59375,1.53125 l -9.84375,17.0625 c 0.98276,0.5456 1.98879,1.0914 3.03125,1.6875 l 9.40625,-17.3125 c 0.85532,0.46506 1.72528,0.93154 2.59375,1.375 l -8.96875,17.5625 c 1.051,0.4897 2.08388,1.01495 3.125,1.53125 l 8.5,-17.78125 c 0.87648,0.41873 1.76748,0.82209 2.65625,1.21875 l -8,17.96875 c 1.09143,0.4869 2.14915,0.9592 3.21875,1.4375 l 7.5625,-18.21875 c 0.90114,0.37354 1.80604,0.74299 2.71875,1.09375 l -7.0625,18.34375 c 1.08763,0.4356 2.16719,0.8533 3.21875,1.25 L 316.5,804.71875 c 0.93895,0.33294 1.89358,0.66008 2.84375,0.96875 l -6.09375,18.75 c 1.11611,0.3274 2.21443,0.6904 3.3125,1.0625 l 5.59375,-18.90625 c 0.94534,0.27982 1.88826,0.52564 2.84375,0.78125 l -5.125,19.0625 c 1.15976,0.2525 2.30432,0.52675 3.4375,0.84375 l 4.59375,-19.1875 c 0.96238,0.23025 1.93449,0.45076 2.90625,0.65625 l -4.09375,19.3125 c 1.10471,0.2031 2.23131,0.42185 3.40625,0.65625 l 3.59375,-19.375 c 0.97246,0.17884 1.95651,0.34619 2.9375,0.5 l -3.09375,19.4375 c 1.1218,0.1774 2.25883,0.33865 3.40625,0.46875 l 2.5625,-19.5 c 0.96577,0.12607 1.93298,0.24218 2.90625,0.34375 l -2.0625,19.625 c 1.19298,0.076 2.36675,0.21 3.53125,0.3125 l 1.5625,-19.65625 c 0.95753,0.0742 1.91094,0.13731 2.875,0.1875 l -1.03125,19.65625 c 1.20342,0.087 2.35068,0.1305 3.5,0.1875 l 0.53125,-19.71875 c 0.99151,0.0257 2.00231,0.0313 3,0.0313 l 0,19.6875 c 1.13604,0.019 2.28445,0 3.40625,0 l -0.5,-19.71875 c 0.99181,-0.0251 1.98343,-0.0745 2.96875,-0.125 l 1.03125,19.65625 c 1.15976,-0.034 2.33637,-0.1077 3.53125,-0.1875 l -1.5625,-19.6875 c 0.96866,-0.0753 1.94459,-0.15044 2.90625,-0.25 l 2.0625,19.625 c 1.16071,-0.1661 2.30249,-0.29705 3.40625,-0.46875 l -2.5625,-19.46875 c 1.00759,-0.13065 2.00091,-0.31178 3,-0.46875 l 3.09375,19.46875 c 1.1218,-0.1852 2.25408,-0.3746 3.40625,-0.5625 l -3.59375,-19.375 c 0.9731,-0.1789 1.94203,-0.39013 2.90625,-0.59375 l 4.09375,19.3125 c 1.11706,-0.2791 2.26825,-0.55635 3.4375,-0.78125 l -4.59375,-19.1875 c 0.94378,-0.22589 1.87807,-0.43813 2.8125,-0.6875 l 5.09375,19.03125 c 1.12749,-0.3483 2.23436,-0.6509 3.3125,-0.9375 l -5.59375,-18.90625 c 0.96208,-0.28382 1.92378,-0.56649 2.875,-0.875 l 6.0625,18.71875 c 1.13698,-0.3891 2.22582,-0.7473 3.3125,-1.125 l -6.5625,-18.5625 c 0.9181,-0.32491 1.84296,-0.65224 2.75,-1 l 7.03125,18.3125 c 1.12464,-0.3948 2.22385,-0.80975 3.34375,-1.21875 l -7.5625,-18.21875 c 0.90219,-0.37417 1.79726,-0.75959 2.6875,-1.15625 l 8,17.9375 c 1.07434,-0.4556 2.11994,-0.92405 3.125,-1.40625 L 403,800.25 c 0.89718,-0.42794 1.7723,-0.86182 2.65625,-1.3125 l 8.9375,17.53125 c 1.06296,-0.5628 2.08198,-1.1154 3.125,-1.625 l -9.375,-17.3125 c 0.86714,-0.47176 1.70925,-0.97517 2.5625,-1.46875 l 9.875,17.09375 c 0.97754,-0.6141 1.96945,-1.2155 2.9375,-1.8125 L 413.4375,794.5625 c 0.84764,-0.5201 1.69856,-1.05215 2.53125,-1.59375 l 10.6875,16.46875 c 0.99273,-0.5989 1.95236,-1.2202 2.9375,-1.875 l -11.15625,-16.25 c 0.8137,-0.56022 1.60813,-1.13798 2.40625,-1.71875 l 11.59375,15.96875 c 0.90162,-0.6976 1.82845,-1.39715 2.75,-2.09375 l -11.96875,-15.625 c 0.79366,-0.60949 1.56691,-1.21389 2.34375,-1.84375 l 12.375,15.28125 c 0.87883,-0.7099 1.76887,-1.4558 2.65625,-2.1875 L 427.8125,784.125 c 0.75582,-0.64578 1.51159,-1.3036 2.25,-1.96875 L 443.25,796.8125 c 0.8143,-0.8124 1.66679,-1.6025 2.46875,-2.375 L 432.1875,780.15625 c 0.72687,-0.68949 1.47912,-1.38537 2.1875,-2.09375 L 448.28125,792 c 0.78772,-0.8048 1.59866,-1.63645 2.375,-2.46875 L 436.375,775.96875 c 0.68061,-0.71635 1.36939,-1.45353 2.03125,-2.1875 l 14.625,13.1875 c 0.78678,-0.8617 1.55427,-1.73285 2.28125,-2.65625 L 440.375,771.53125 c 0.64471,-0.75406 1.28121,-1.51023 1.90625,-2.28125 l 15.3125,12.375 c 0.70231,-0.876 1.4256,-1.78495 2.09375,-2.65625 l -15.59375,-12 c 0.6101,-0.79318 1.19191,-1.59664 1.78125,-2.40625 l 15.90625,11.5625 c 0.71275,-0.9272 1.35639,-1.86995 2.0625,-2.84375 L 447.625,762.125 c 0.54693,-0.79463 1.09803,-1.59713 1.625,-2.40625 l 16.5,10.71875 c 0.6169,-0.9994 1.24496,-1.9751 1.8125,-2.9375 l -16.75,-10.28125 c 0.52372,-0.85187 1.06091,-1.6959 1.5625,-2.5625 l 17,9.8125 c 0.59317,-0.9833 1.13894,-1.98925 1.6875,-3.03125 l -17.28125,-9.375 c 0.4764,-0.87489 0.95246,-1.73633 1.40625,-2.625 l 17.5,8.9375 c 0.53717,-1.0506 1.03116,-2.0839 1.5,-3.125 L 456.5,746.8125 c 0.42698,-0.89264 0.84592,-1.78211 1.25,-2.6875 l 17.96875,8 c 0.43942,-1.0915 0.91288,-2.14915 1.34375,-3.21875 L 458.90625,741.375 c 0.38047,-0.91699 0.73688,-1.85228 1.09375,-2.78125 l 18.375,7.0625 c 0.38817,-1.0877 0.80699,-2.16725 1.15625,-3.21875 l -18.5,-6.5625 c 0.33176,-0.93526 0.66107,-1.86611 0.96875,-2.8125 l 18.65625,6.0625 c 0.37488,-1.1161 0.70667,-2.2145 1.03125,-3.3125 l -18.8125,-5.59375 c 0.2785,-0.94077 0.52672,-1.89294 0.78125,-2.84375 l 19,5.09375 c 0.2999,-1.1597 0.57421,-2.27305 0.84375,-3.40625 l -19.09375,-4.59375 c 0.23088,-0.96474 0.45025,-1.93209 0.65625,-2.90625 l 19.1875,4.09375 c 0.25055,-1.1048 0.50053,-2.2627 0.6875,-3.4375 l -19.3125,-3.5625 c 0.18063,-0.98075 0.37608,-1.94807 0.53125,-2.9375 l 19.4375,3.09375 c 0.13002,-1.1218 0.29127,-2.25895 0.46875,-3.40625 l -19.53125,-2.5625 c 0.12749,-0.97482 0.27248,-1.95504 0.375,-2.9375 l 19.53125,2.0625 c 0.12338,-1.193 0.2262,-2.3355 0.28125,-3.5 L 467.1875,706.9375 c 0.0745,-0.95875 0.13699,-1.94095 0.1875,-2.90625 L 487,705.0625 c 0.0399,-1.2034 0.1155,-2.38195 0.125,-3.53125 L 467.46875,701 c 0.0257,-0.99152 0.0625,-1.97104 0.0625,-2.96875 l 19.6875,0 c -0.0285,-1.1361 -0.0426,-2.28445 -0.0937,-3.40625 l -19.65625,0.5 c -0.0254,-1.00199 -0.0425,-2.00465 -0.0937,-3 L 487,691.09375 c -0.0816,-1.1598 -0.15408,-2.3052 -0.28125,-3.5 L 467.1875,689.125 c -0.0761,-0.97919 -0.18035,-1.93421 -0.28125,-2.90625 l 19.53125,-2.0625 c -0.11864,-1.1608 -0.24972,-2.30255 -0.375,-3.40625 l -19.5,2.5625 c -0.12834,-0.98786 -0.2526,-1.98906 -0.40625,-2.96875 l 19.4375,-3.09375 c -0.23253,-1.1218 -0.42088,-2.2853 -0.65625,-3.4375 l -19.3125,3.59375 c -0.17886,-0.97109 -0.35902,-1.94402 -0.5625,-2.90625 l 19.1875,-4.09375 c -0.23157,-1.117 -0.47762,-2.23705 -0.75,-3.40625 l -19.09375,4.59375 c -0.22817,-0.95342 -0.49787,-1.89988 -0.75,-2.84375 l 19,-5.09375 c -0.30086,-1.1275 -0.63468,-2.2344 -0.96875,-3.3125 l -18.8125,5.5625 c -0.27895,-0.94417 -0.57226,-1.87879 -0.875,-2.8125 l 18.65625,-6.0625 c -0.34166,-1.137 -0.69982,-2.2258 -1.125,-3.3125 L 461.0625,660.25 c -0.32738,-0.92476 -0.68069,-1.83647 -1.03125,-2.75 l 18.34375,-7.03125 c -0.44227,-1.1247 -0.856,-2.1926 -1.3125,-3.3125 l -18.15625,7.53125 c -0.37217,-0.89697 -0.7306,-1.80234 -1.125,-2.6875 l 17.9375,-7.96875 c -0.50301,-1.0744 -1.00167,-2.12 -1.53125,-3.125 l -17.65625,8.4375 c -0.43073,-0.9025 -0.89001,-1.7984 -1.34375,-2.6875 l 17.5,-8.90625 c -0.51534,-1.0629 -1.06789,-2.082 -1.625,-3.125 L 453.78125,644 c -0.46985,-0.86287 -0.91479,-1.74465 -1.40625,-2.59375 l 17,-9.8125 c -0.56659,-0.9776 -1.16808,-1.9695 -1.8125,-2.9375 l -16.71875,10.25 c -0.51518,-0.83914 -1.02623,-1.67551 -1.5625,-2.5 L 465.75,625.71875 c -0.64631,-0.9927 -1.29885,-1.9523 -1.90625,-2.9375 L 447.625,633.9375 c -0.57168,-0.83059 -1.15692,-1.65439 -1.75,-2.46875 l 15.90625,-11.5625 c -0.65012,-0.9016 -1.34968,-1.8284 -2.09375,-2.75 L 444.125,629.125 c -0.5992,-0.77963 -1.22489,-1.54911 -1.84375,-2.3125 l 15.3125,-12.40625 c -0.75736,-0.8788 -1.50206,-1.76885 -2.28125,-2.65625 l -14.9375,12.78125 c -0.65119,-0.76165 -1.29789,-1.50605 -1.96875,-2.25 l 14.625,-13.1875 c -0.76495,-0.8143 -1.55501,-1.66675 -2.375,-2.46875 l -14.21875,13.5 c -0.68341,-0.72012 -1.36054,-1.42304 -2.0625,-2.125 l 13.90625,-13.9375 c -0.85226,-0.7877 -1.68271,-1.5987 -2.5625,-2.375 l -13.5,14.21875 c -0.70419,-0.66825 -1.40381,-1.31861 -2.125,-1.96875 L 443.25,599.3125 c -0.90921,-0.7868 -1.78026,-1.55425 -2.65625,-2.28125 l -12.75,14.9375 c -0.75354,-0.64434 -1.51077,-1.28155 -2.28125,-1.90625 l 12.375,-15.28125 c -0.92345,-0.70231 -1.8313,-1.42561 -2.75,-2.09375 L 423.25,608.25 c -0.7805,-0.59987 -1.5786,-1.20146 -2.375,-1.78125 l 11.5625,-15.875 c -0.97469,-0.71276 -1.91746,-1.38764 -2.84375,-2.09375 l -11.15625,16.25 c -0.82506,-0.56804 -1.65932,-1.10973 -2.5,-1.65625 l 10.71875,-16.5 c -0.95191,-0.61689 -1.92769,-1.21371 -2.9375,-1.78125 L 413.5,601.5 c -0.82714,-0.50805 -1.69023,-0.98155 -2.53125,-1.46875 L 420.78125,583 c -1.03069,-0.59317 -2.06787,-1.17019 -3.0625,-1.71875 l -9.375,17.25 c -0.86319,-0.4696 -1.74842,-0.92739 -2.625,-1.375 l 8.875,-17.46875 c -1.00317,-0.53717 -2.03641,-1.06241 -3.125,-1.53125 l -8.4375,17.6875 c -0.889,-0.42444 -1.78587,-0.84826 -2.6875,-1.25 l 8,-17.9375 c -1.04398,-0.43942 -2.10285,-0.91287 -3.125,-1.34375 l -7.53125,18.15625 c -0.94696,-0.39314 -1.88401,-0.78829 -2.84375,-1.15625 l 7.03125,-18.34375 c -1.04018,-0.38817 -2.11972,-0.77575 -3.21875,-1.125 L 392.125,591.3125 c -0.94367,-0.33424 -1.88877,-0.65902 -2.84375,-0.96875 l 6.0625,-18.625 c -1.06865,-0.37488 -2.19823,-0.73792 -3.34375,-1.0625 l -5.5625,18.8125 c -0.93465,-0.276 -1.86794,-0.56016 -2.8125,-0.8125 l 5.0625,-18.9375 c -1.11231,-0.29991 -2.22677,-0.60546 -3.3125,-0.875 l -4.59375,19.125 c -0.97539,-0.23345 -1.95248,-0.44824 -2.9375,-0.65625 l 4.09375,-19.21875 c -1.15216,-0.25056 -2.27876,-0.46929 -3.40625,-0.65625 l -3.5625,19.3125 c -0.97061,-0.17877 -1.95838,-0.34617 -2.9375,-0.5 l 3.09375,-19.46875 c -1.16925,-0.13002 -2.33637,-0.32252 -3.53125,-0.5 l -2.5625,19.5 c -0.96447,-0.12506 -1.93432,-0.21188 -2.90625,-0.3125 l 2.0625,-19.5625 c -1.14553,-0.12338 -2.2892,-0.2262 -3.40625,-0.28125 L 363.25,585.21875 c -1.01003,-0.0788 -2.01395,-0.16662 -3.03125,-0.21875 L 361.25,565.34375 c -1.15597,-0.0399 -2.30323,-0.0842 -3.5,-0.0937 l -0.5,19.625 c -0.9708,-0.0246 -1.92952,-0.0313 -2.90625,-0.0313 l 0,-19.6875 z m 0,88.03125 c 24.77454,0 44.84375,20.06921 44.84375,44.84375 0,24.77454 -20.06921,44.84375 -44.84375,44.84375 -24.77454,0 -44.875,-20.06921 -44.875,-44.84375 0,-24.77454 20.10046,-44.84375 44.875,-44.84375 z"
       id="path4659"
       style="fill:#231f20;fill-opacity:0;fill-rule:nonzero;stroke:#000000;stroke-width:0.35433072;stroke-miterlimit:4;stroke-opacity:1;stroke-dasharray:none" />
  </g>
</svg>
