<?xml version="1.0" encoding="UTF-8" standalone="no"?>
<!-- Created with Inkscape (http://www.inkscape.org/) -->

<svg
   xmlns:dc="http://purl.org/dc/elements/1.1/"
   xmlns:cc="http://creativecommons.org/ns#"
   xmlns:rdf="http://www.w3.org/1999/02/22-rdf-syntax-ns#"
   xmlns:svg="http://www.w3.org/2000/svg"
   xmlns="http://www.w3.org/2000/svg"
   version="1.1"
   width="744.09448"
   height="1052.3622"
   id="svg2">
  <defs
     id="defs4">
    <clipPath
       id="clipPath3071">
      <path
         d="m 0,0 5950,0 0,7920 L 0,7920 0,0 z"
         id="path3073" />
    </clipPath>
    <clipPath
       id="clipPath3296">
      <path
         d="m 0,0 5950,0 0,7920 L 0,7920 0,0 z"
         id="path3298" />
    </clipPath>
    <clipPath
       id="clipPath4655">
      <path
         d="m 0,0 5950,0 0,7920 L 0,7920 0,0 z"
         id="path4657" />
    </clipPath>
  </defs>
  <metadata
     id="metadata7">
    <rdf:RDF>
      <cc:Work
         rdf:about="">
        <dc:format>image/svg+xml</dc:format>
        <dc:type
           rdf:resource="http://purl.org/dc/dcmitype/StillImage" />
        <dc:title></dc:title>
      </cc:Work>
    </rdf:RDF>
  </metadata>
  <g
     id="layer1">
    <path
       d="m 354.3125,564.46875 c -73.76318,0 -133.5625,59.79937 -133.5625,133.5625 0,73.76318 59.79932,133.5625 133.5625,133.5625 73.76313,0 133.5625,-59.79932 133.5625,-133.5625 0,-73.76313 -59.79937,-133.5625 -133.5625,-133.5625 z M 354.34375,568 c 1.11157,2.6e-4 2.23886,0.0345 3.34375,0.0625 L 357.25,584.875 c -0.9708,-0.0246 -1.92952,-0.0313 -2.90625,-0.0313 l 0,-16.84375 z m -3.46875,0.0625 0.46875,16.8125 c -1.00236,0.0259 -2.00429,0.0732 -3,0.125 l -0.875,-16.8125 c 1.12873,-0.0586 2.27009,-0.0954 3.40625,-0.125 z m 10.21875,0.125 c 1.16133,0.0594 2.31567,0.1603 3.46875,0.25 l -1.3125,16.78125 c -1.01003,-0.0788 -2.01395,-0.16662 -3.03125,-0.21875 l 0.875,-16.8125 z m -16.96875,0.25 1.3125,16.75 c -1.00076,0.0778 -2.00671,0.17759 -3,0.28125 l -1.75,-16.75 c 1.14317,-0.11914 2.28572,-0.19193 3.4375,-0.28125 z m 23.78125,0.28125 c 1.11243,0.11543 2.20859,0.2317 3.3125,0.375 l -2.1875,16.6875 c -0.96447,-0.12506 -1.93432,-0.21188 -2.90625,-0.3125 l 1.78125,-16.75 z m -30.5625,0.40625 2.1875,16.6875 c -0.96315,0.12573 -1.91962,0.25646 -2.875,0.40625 L 334,569.59375 c 1.11635,-0.17533 2.21816,-0.32202 3.34375,-0.46875 z m 37.34375,0.46875 c 1.11784,0.17584 2.23556,0.35837 3.34375,0.5625 l -3.0625,16.59375 c -0.97061,-0.17877 -1.95838,-0.34617 -2.9375,-0.5 l 2.65625,-16.65625 z m -44.0625,0.5625 3.09375,16.59375 c -0.97913,0.18012 -1.93611,0.35735 -2.90625,0.5625 l -3.5,-16.46875 c 1.10099,-0.23272 2.20142,-0.48284 3.3125,-0.6875 z m 50.71875,0.6875 c 1.13166,0.2392 2.25442,0.48157 3.375,0.75 l -3.9375,16.375 c -0.97539,-0.23345 -1.95248,-0.44824 -2.9375,-0.65625 l 3.5,-16.46875 z m -57.375,0.75 3.9375,16.375 c -0.97924,0.23428 -1.96834,0.4592 -2.9375,0.71875 l -4.375,-16.25 c 1.11709,-0.29933 2.24625,-0.57365 3.375,-0.84375 z m 64,0.8125 c 1.08813,0.29079 2.17331,0.61939 3.25,0.9375 l -4.78125,16.125 c -0.93465,-0.276 -1.86794,-0.56016 -2.8125,-0.8125 l 4.34375,-16.25 z m -70.59375,0.9375 4.78125,16.15625 c -0.95302,0.28217 -1.9014,0.56859 -2.84375,0.875 l -5.1875,-16 c 1.08107,-0.35118 2.15671,-0.70784 3.25,-1.03125 z m 77.125,1 c 1.09099,0.35403 2.17187,0.71187 3.25,1.09375 l -5.625,15.875 c -0.94367,-0.33424 -1.88877,-0.65902 -2.84375,-0.96875 l 5.21875,-16 z m -83.65625,1.125 5.625,15.875 c -0.91467,0.3246 -1.81507,0.65271 -2.71875,1 L 307.71875,576.625 c 1.03633,-0.39813 2.07609,-0.78409 3.125,-1.15625 z m 90.03125,1.125 c 1.1019,0.42264 2.19401,0.86096 3.28125,1.3125 l -6.46875,15.5625 c -0.94696,-0.39314 -1.88401,-0.78829 -2.84375,-1.15625 L 400.875,576.59375 z M 304.53125,577.875 311,593.46875 c -0.9174,0.38067 -1.84497,0.75233 -2.75,1.15625 l -6.84375,-15.375 c 1.03524,-0.46189 2.07567,-0.93959 3.125,-1.375 z m 102.65625,1.34375 c 1.04221,0.46433 2.06622,0.94677 3.09375,1.4375 l -7.25,15.1875 c -0.889,-0.42444 -1.78587,-0.84826 -2.6875,-1.25 l 6.84375,-15.375 z m -108.875,1.46875 7.25,15.1875 c -0.8972,0.42903 -1.77231,0.86072 -2.65625,1.3125 l -7.65625,-15 c 1.00607,-0.51395 2.04149,-1.0117 3.0625,-1.5 z m 115.03125,1.46875 c 1.01803,0.51937 2.02894,1.04856 3.03125,1.59375 l -8.03125,14.78125 c -0.86319,-0.4696 -1.74842,-0.92739 -2.625,-1.375 l 7.625,-15 z m -121.0625,1.59375 8.03125,14.78125 c -0.87504,0.47605 -1.73286,0.97047 -2.59375,1.46875 l -8.40625,-14.59375 c 0.9793,-0.56636 1.97352,-1.11492 2.96875,-1.65625 z m 127.09375,1.6875 c 0.97163,0.56259 1.95074,1.13194 2.90625,1.71875 L 413.5,601.5 c -0.82714,-0.50805 -1.69023,-0.98155 -2.53125,-1.46875 L 419.375,585.4375 z m -133.03125,1.75 8.78125,14.34375 c -0.83448,0.51299 -1.64878,1.0599 -2.46875,1.59375 L 283.46875,589 c 0.94939,-0.61824 1.90867,-1.2186 2.875,-1.8125 z m 138.78125,1.78125 c 0.95691,0.62241 1.90447,1.25956 2.84375,1.90625 l -9.53125,13.875 c -0.82506,-0.56804 -1.65932,-1.10973 -2.5,-1.65625 l 9.1875,-14.125 z m -144.4375,1.90625 9.53125,13.875 c -0.82427,0.56768 -1.62922,1.16123 -2.4375,1.75 L 277.875,592.875 c 0.9304,-0.67759 1.86366,-1.34673 2.8125,-2 z m 150.09375,2 c 0.91504,0.6664 1.82199,1.34177 2.71875,2.03125 L 423.25,608.25 c -0.7805,-0.59987 -1.5786,-1.20146 -2.375,-1.78125 l 9.90625,-13.59375 z m -155.65625,2.0625 10.25,13.34375 c -0.76712,0.59017 -1.52987,1.17204 -2.28125,1.78125 L 272.5,597 c 0.86305,-0.69981 1.74388,-1.38457 2.625,-2.0625 z M 436.15625,597 c 0.88088,0.71427 1.73214,1.45088 2.59375,2.1875 l -10.90625,12.78125 c -0.75354,-0.64434 -1.51077,-1.28155 -2.28125,-1.90625 L 436.15625,597 z m -166.25,2.1875 10.90625,12.78125 c -0.75562,0.64612 -1.5118,1.30327 -2.25,1.96875 l -11.25,-12.5 c 0.85092,-0.7671 1.72268,-1.5053 2.59375,-2.25 z m 171.4375,2.25 c 0.82759,0.74607 1.66064,1.48318 2.46875,2.25 l -11.59375,12.21875 c -0.70419,-0.66825 -1.40381,-1.31861 -2.125,-1.96875 l 11.25,-12.5 z m -176.53125,2.3125 11.59375,12.21875 c -0.69946,0.66452 -1.41144,1.34921 -2.09375,2.03125 l -0.0313,0 -11.90625,-11.90625 c 0.79277,-0.79277 1.62457,-1.57157 2.4375,-2.34375 z m 181.4375,2.34375 c 0.80318,0.80318 1.59296,1.64487 2.375,2.46875 l -12.1875,11.5625 c -0.68341,-0.72012 -1.36054,-1.42304 -2.0625,-2.125 l 11.875,-11.90625 z m -186.25,2.5 12.1875,11.5625 c -0.66851,0.70499 -1.31839,1.43425 -1.96875,2.15625 l -12.5,-11.25 c 0.75058,-0.83317 1.50964,-1.65531 2.28125,-2.46875 z M 450.90625,611 c 0.76559,0.84894 1.53796,1.69349 2.28125,2.5625 l -12.8125,10.96875 c -0.65119,-0.76165 -1.29789,-1.50605 -1.96875,-2.25 L 450.90625,611 z m -195.46875,2.625 12.8125,10.9375 c -0.63484,0.7431 -1.25925,1.49044 -1.875,2.25 l -13.09375,-10.59375 c 0.7082,-0.87351 1.42607,-1.73918 2.15625,-2.59375 z m 199.9375,2.59375 c 0.71,0.87573 1.40628,1.76191 2.09375,2.65625 l -13.34375,10.25 c -0.5992,-0.77963 -1.22489,-1.54911 -1.84375,-2.3125 L 455.375,616.21875 z m -204.21875,2.65625 13.375,10.25 c -0.60465,0.78672 -1.19701,1.57213 -1.78125,2.375 l -13.59375,-9.90625 c 0.66,-0.90625 1.31736,-1.83043 2,-2.71875 z m 208.3125,2.6875 c 0.6858,0.94116 1.37034,1.88371 2.03125,2.84375 l -13.875,9.53125 c -0.57168,-0.83059 -1.15692,-1.65439 -1.75,-2.46875 l 13.59375,-9.90625 z m -212.3125,2.84375 13.875,9.53125 c -0.56001,0.81364 -1.11716,1.63993 -1.65625,2.46875 L 245.25,627.25 c 0.62241,-0.95691 1.25956,-1.90447 1.90625,-2.84375 z m 216.25,2.84375 c 0.61298,0.94242 1.22349,1.88467 1.8125,2.84375 l -14.375,8.8125 c -0.51518,-0.83914 -1.02623,-1.67551 -1.5625,-2.5 l 14.125,-9.15625 z m -219.96875,2.875 14.34375,8.78125 c -0.51519,0.83943 -1.00628,1.67754 -1.5,2.53125 l -14.59375,-8.40625 c 0.56881,-0.98353 1.15638,-1.93922 1.75,-2.90625 z m 223.5,2.875 c 0.56678,0.97927 1.1145,1.97354 1.65625,2.96875 L 453.78125,644 c -0.46985,-0.86287 -0.91479,-1.74465 -1.40625,-2.59375 L 466.9375,633 z m -226.90625,3 14.8125,8.03125 c -0.48033,0.88292 -0.94894,1.75932 -1.40625,2.65625 l -15,-7.65625 c 0.51955,-1.01841 1.04836,-2.02857 1.59375,-3.03125 z m 230.1875,3 c 0.52133,1.02136 1.00511,2.05701 1.5,3.09375 l -15.1875,7.25 c -0.43073,-0.9025 -0.89001,-1.7984 -1.34375,-2.6875 L 470.21875,639 z m -233.3125,3.125 15.21875,7.25 c -0.42116,0.88306 -0.81999,1.76074 -1.21875,2.65625 L 235.5,645.1875 c 0.45579,-1.02311 0.92501,-2.05353 1.40625,-3.0625 z m 236.25,3.0625 c 0.45109,1.01256 0.88673,2.03648 1.3125,3.0625 l -15.5625,6.4375 c -0.37217,-0.89697 -0.7306,-1.80234 -1.125,-2.6875 l 15.375,-6.8125 z M 234.1875,648.25 249.75,654.6875 c -0.38559,0.92933 -0.76366,1.87087 -1.125,2.8125 l -15.71875,-6.03125 c 0.41367,-1.0775 0.83994,-2.15528 1.28125,-3.21875 z m 241.5625,3.21875 c 0.40268,1.04888 0.81142,2.09449 1.1875,3.15625 l -15.875,5.625 c -0.32738,-0.92476 -0.68069,-1.83647 -1.03125,-2.75 L 475.75,651.46875 z m -121.40625,1.71875 c 24.77454,0 44.84375,20.06921 44.84375,44.84375 0,24.77454 -20.06921,44.84375 -44.84375,44.84375 -24.77454,0 -44.875,-20.06921 -44.875,-44.84375 0,-24.77454 20.10046,-44.84375 44.875,-44.84375 z m -122.625,1.46875 15.875,5.625 c -0.33076,0.93509 -0.66205,1.86631 -0.96875,2.8125 l -16,-5.1875 c 0.35382,-1.0912 0.71207,-2.17165 1.09375,-3.25 z m 246.3125,3.21875 c 0.35039,1.07978 0.6773,2.15803 1,3.25 l -16.15625,4.78125 c -0.27895,-0.94417 -0.57226,-1.87879 -0.875,-2.8125 l 16.03125,-5.21875 z m -248.40625,3.28125 16.125,4.78125 c -0.27471,0.931 -0.53001,1.87168 -0.78125,2.8125 l -16.25,-4.34375 c 0.2912,-1.09071 0.58759,-2.17078 0.90625,-3.25 z m 250.3125,3.21875 c 0.28959,1.08364 0.58166,2.18666 0.84375,3.28125 l -16.375,3.9375 c -0.22817,-0.95342 -0.49787,-1.89988 -0.75,-2.84375 l 16.28125,-4.375 z m -252.0625,3.3125 16.375,3.90625 c -0.23088,0.96474 -0.45025,1.93209 -0.65625,2.90625 L 227.125,671 c 0.23441,-1.10768 0.48758,-2.21542 0.75,-3.3125 z M 481.53125,671 c 0.23288,1.10044 0.4514,2.20197 0.65625,3.3125 l -16.5625,3.09375 c -0.17886,-0.97109 -0.35902,-1.94402 -0.5625,-2.90625 l 16.46875,-3.5 z m -255.0625,3.34375 16.5625,3.0625 c -0.17877,0.97061 -0.37742,1.92713 -0.53125,2.90625 l -16.59375,-2.625 c 0.17591,-1.11828 0.35828,-2.23513 0.5625,-3.34375 z M 482.75,677.6875 c 0.18043,1.14702 0.34977,2.28073 0.5,3.4375 l -16.6875,2.1875 c -0.12834,-0.98786 -0.2526,-1.98906 -0.40625,-2.96875 L 482.75,677.6875 z m -257.34375,3.4375 16.6875,2.1875 c -0.12519,0.96359 -0.24296,1.9352 -0.34375,2.90625 l -16.75,-1.75 c 0.11575,-1.11571 0.26247,-2.2366 0.40625,-3.34375 z m 258.25,3.3125 c 0.11674,1.12266 0.19327,2.24404 0.28125,3.375 l -16.75,1.3125 c -0.0761,-0.97919 -0.18035,-1.93421 -0.28125,-2.90625 l 16.75,-1.78125 z m -258.9375,3.375 16.75,1.34375 c -0.0759,0.97914 -0.13672,1.98278 -0.1875,2.96875 l -16.8125,-0.875 c 0.0592,-1.15085 0.1611,-2.29475 0.25,-3.4375 z M 484.1875,691.25 c 0.0586,1.13907 0.096,2.29087 0.125,3.4375 l -16.84375,0.4375 c -0.0254,-1.00199 -0.0425,-2.00465 -0.0937,-3 l 16.8125,-0.875 z m -259.84375,3.4375 16.84375,0.4375 c -0.0246,0.9708 -0.0313,1.92952 -0.0313,2.90625 l -16.84375,0 c 0,-1.12202 0.003,-2.22854 0.0313,-3.34375 z m 243.1875,3.34375 16.8125,0 c 0,1.14316 -0.002,2.30141 -0.0313,3.4375 L 467.46875,701 c 0.0257,-0.99152 0.0625,-1.97104 0.0625,-2.96875 z M 241.1875,701 c 0.0262,1.01218 0.0411,2.02585 0.0937,3.03125 l -16.8125,0.875 c -0.0599,-1.1492 -0.0951,-2.28059 -0.125,-3.4375 L 241.1875,701 z m 226.1875,3.03125 16.8125,0.875 c -0.0583,1.11873 -0.16359,2.23269 -0.25,3.34375 l -16.75,-1.3125 c 0.0745,-0.95875 0.13699,-1.94095 0.1875,-2.90625 z m -225.90625,2.875 c 0.0783,1.01045 0.1766,1.99716 0.28125,3 l -16.75,1.75 c -0.11693,-1.12432 -0.19316,-2.2736 -0.28125,-3.40625 l 16.75,-1.34375 z m 225.4375,3 16.75,1.78125 c -0.11714,1.12368 -0.26067,2.22876 -0.40625,3.34375 l -16.71875,-2.1875 c 0.12749,-0.97482 0.27248,-1.95504 0.375,-2.9375 z m -224.78125,2.9375 c 0.12634,0.966 0.22446,1.94807 0.375,2.90625 l -16.59375,2.625 c -0.17397,-1.10768 -0.35419,-2.22698 -0.5,-3.34375 l 16.71875,-2.1875 z m 224.03125,2.875 16.59375,2.65625 c -0.17564,1.11834 -0.35854,2.23506 -0.5625,3.34375 l -16.5625,-3.0625 c 0.18063,-0.98075 0.37608,-1.94807 0.53125,-2.9375 z m -223.125,2.90625 c 0.18045,0.98123 0.35692,1.9653 0.5625,2.9375 l -16.46875,3.5 c -0.23686,-1.12056 -0.44846,-2.24399 -0.65625,-3.375 l 16.5625,-3.0625 z m 222.03125,2.9375 16.46875,3.5 c -0.23693,1.12091 -0.48439,2.2337 -0.75,3.34375 l -16.375,-3.9375 c 0.23088,-0.96474 0.45025,-1.93209 0.65625,-2.90625 z M 244.25,724.46875 c 0.23051,0.96319 0.49504,1.92155 0.75,2.875 l -16.28125,4.375 c -0.29679,-1.10957 -0.57579,-2.22269 -0.84375,-3.34375 l 16.375,-3.90625 z m 219.40625,2.90625 16.25,4.375 C 479.6142,732.84054 479.3195,733.92097 479,735 l -16.125,-4.78125 c 0.2785,-0.94077 0.52672,-1.89294 0.78125,-2.84375 z m -217.875,2.84375 c 0.27933,0.94357 0.57191,1.87938 0.875,2.8125 l -16,5.21875 c -0.34931,-1.0749 -0.67814,-2.16301 -1,-3.25 l 16.125,-4.78125 z M 462,733.0625 478,738.25 c -0.35303,1.08636 -0.7131,2.1764 -1.09375,3.25 l -15.875,-5.625 c 0.33176,-0.93526 0.66107,-1.86611 0.96875,-2.8125 z m -214.375,2.78125 c 0.32771,0.92464 0.68036,1.83658 1.03125,2.75 l -15.75,6.0625 C 232.5046,743.61078 232.12522,742.55828 231.75,741.5 l 15.875,-5.65625 z m 212.375,2.75 15.75,6.0625 c -0.41041,1.06828 -0.84367,2.13301 -1.28125,3.1875 l -15.5625,-6.46875 c 0.38047,-0.91699 0.73688,-1.85228 1.09375,-2.78125 z M 249.75,741.375 c 0.3814,0.91922 0.78276,1.84319 1.1875,2.75 l -15.40625,6.84375 c -0.46829,-1.04914 -0.90266,-2.09264 -1.34375,-3.15625 L 249.75,741.375 z m 208,2.75 15.375,6.84375 c -0.46281,1.03686 -0.94855,2.07145 -1.4375,3.09375 l -15.1875,-7.25 c 0.42698,-0.89264 0.84592,-1.78211 1.25,-2.6875 z m -205.59375,2.65625 c 0.42544,0.89003 0.86467,1.77926 1.3125,2.65625 l -15,7.625 c -0.51504,-1.00876 -1.042,-2.00747 -1.53125,-3.03125 l 15.21875,-7.25 z m 203.03125,2.65625 15,7.65625 c -0.51591,1.00994 -1.05242,2.00555 -1.59375,3 l -14.8125,-8.03125 c 0.4764,-0.87489 0.95246,-1.73633 1.40625,-2.625 z m -200.34375,2.59375 c 0.46979,0.86355 0.94606,1.74398 1.4375,2.59375 l -14.59375,8.40625 c -0.56588,-0.97852 -1.11535,-1.97432 -1.65625,-2.96875 l 14.8125,-8.03125 z m 197.53125,2.625 14.5625,8.40625 c -0.57409,0.99197 -1.15067,1.99358 -1.75,2.96875 l -14.375,-8.8125 c 0.52372,-0.85187 1.06091,-1.6959 1.5625,-2.5625 z m -194.53125,2.53125 c 0.52007,0.84638 1.02098,1.69979 1.5625,2.53125 l -14.125,9.15625 c -0.61957,-0.95172 -1.2174,-1.90627 -1.8125,-2.875 l 14.375,-8.8125 z m 191.40625,2.53125 14.125,9.15625 c -0.61067,0.93805 -1.24099,1.86014 -1.875,2.78125 L 447.625,762.125 c 0.54693,-0.79463 1.09803,-1.59713 1.625,-2.40625 z M 261.03125,762.125 c 0.56337,0.81852 1.13459,1.63473 1.71875,2.4375 l -13.625,9.90625 c -0.67058,-0.92142 -1.32201,-1.873 -1.96875,-2.8125 l 13.875,-9.53125 z m 184.84375,2.4375 13.625,9.90625 c -0.68169,0.93657 -1.35664,1.86382 -2.0625,2.78125 l -13.34375,-10.28125 c 0.6101,-0.79318 1.19191,-1.59664 1.78125,-2.40625 z m -181.3125,2.40625 c 0.59058,0.76781 1.20284,1.52921 1.8125,2.28125 l -13.09375,10.59375 c -0.70378,-0.86827 -1.41211,-1.73844 -2.09375,-2.625 l 13.375,-10.25 z M 442.28125,769.25 455.375,779.84375 c -0.72424,0.89352 -1.44027,1.78255 -2.1875,2.65625 L 440.375,771.53125 c 0.64471,-0.75406 1.28121,-1.51023 1.90625,-2.28125 z M 268.25,771.5 c 0.64722,0.75759 1.30208,1.5099 1.96875,2.25 l -12.53125,11.28125 c -0.763,-0.84716 -1.50919,-1.72664 -2.25,-2.59375 L 268.25,771.5 z m 170.15625,2.28125 12.5,11.28125 c -0.75991,0.8429 -1.53106,1.67731 -2.3125,2.5 L 436.375,775.96875 c 0.68061,-0.71635 1.36939,-1.45353 2.03125,-2.1875 z m -166.1875,2.15625 c 0.68385,0.72061 1.36008,1.42258 2.0625,2.125 L 262.375,789.96875 c -0.80821,-0.80821 -1.5882,-1.60834 -2.375,-2.4375 l 12.21875,-11.59375 z m 162.15625,2.125 11.875,11.90625 c -0.81863,0.81862 -1.62863,1.64084 -2.46875,2.4375 l -11.59375,-12.25 c 0.72687,-0.68949 1.47912,-1.38537 2.1875,-2.09375 z m -157.9375,2.0625 c 0.71991,0.68342 1.41858,1.36677 2.15625,2.03125 l -11.25,12.5 c -0.84404,-0.76038 -1.67621,-1.53054 -2.5,-2.3125 L 276.4375,780.125 z m 153.625,2.03125 11.25,12.5 c -0.84389,0.76025 -1.69881,1.51177 -2.5625,2.25 L 427.8125,784.125 c 0.75582,-0.64578 1.51159,-1.3036 2.25,-1.96875 z M 280.84375,784.125 c 0.74269,0.63456 1.49088,1.25951 2.25,1.875 L 272.5,799.0625 c -0.87378,-0.70865 -1.73894,-1.42561 -2.59375,-2.15625 L 280.84375,784.125 z M 425.5625,786 l 10.59375,13.0625 c -0.89536,0.72615 -1.80394,1.4224 -2.71875,2.125 l -10.21875,-13.34375 c 0.79366,-0.60949 1.56691,-1.21389 2.34375,-1.84375 z m -140.15625,1.8125 c 0.78695,0.60495 1.60314,1.19672 2.40625,1.78125 l -9.90625,13.625 c -0.92702,-0.67465 -1.84173,-1.36417 -2.75,-2.0625 l 10.25,-13.34375 z m 135.4375,1.78125 9.90625,13.625 c -0.91889,0.66873 -1.84439,1.32373 -2.78125,1.96875 l -9.53125,-13.875 c 0.8137,-0.56022 1.60813,-1.13798 2.40625,-1.71875 z m -130.625,1.71875 c 0.80837,0.55673 1.61412,1.08893 2.4375,1.625 l -9.1875,14.125 c -0.9372,-0.6103 -1.86098,-1.2414 -2.78125,-1.875 l 9.53125,-13.875 z m 125.75,1.65625 9.15625,14.125 c -0.95071,0.61838 -1.90733,1.24978 -2.875,1.84375 l -8.8125,-14.375 c 0.84764,-0.5201 1.69856,-1.05215 2.53125,-1.59375 z m -120.8125,1.59375 c 0.85127,0.52287 1.72778,1.03047 2.59375,1.53125 l -8.40625,14.59375 c -1.00297,-0.57977 -1.98293,-1.17569 -2.96875,-1.78125 l 8.78125,-14.34375 z m 115.75,1.5 8.4375,14.59375 c -0.99044,0.57321 -1.962,1.13989 -2.96875,1.6875 l -8.03125,-14.8125 c 0.86714,-0.47176 1.70925,-0.97517 2.5625,-1.46875 z m -110.5625,1.46875 c 0.85532,0.46506 1.72528,0.93154 2.59375,1.375 l -7.65625,15 c -1.00532,-0.5133 -2.01002,-1.02402 -3,-1.5625 l 8.0625,-14.8125 z m 105.3125,1.40625 7.65625,15 c -1.00745,0.5137 -2.04008,1.01201 -3.0625,1.5 L 403,800.25 c 0.89718,-0.42794 1.7723,-0.86182 2.65625,-1.3125 z m -100.0625,1.28125 c 0.87648,0.41873 1.76748,0.82209 2.65625,1.21875 l -6.84375,15.375 c -1.03293,-0.46086 -2.04401,-0.91945 -3.0625,-1.40625 l 7.25,-15.1875 z m 94.75,1.25 6.84375,15.375 c -1.01438,0.45193 -2.03461,0.91724 -3.0625,1.34375 l -6.46875,-15.5625 c 0.90219,-0.37417 1.79726,-0.75959 2.6875,-1.15625 z m -89.3125,1.15625 c 0.90114,0.37354 1.80604,0.74299 2.71875,1.09375 l -6.0625,15.71875 c -1.04904,-0.40329 -2.08926,-0.8205 -3.125,-1.25 l 6.46875,-15.5625 z m 83.8125,1.125 6.03125,15.71875 c -1.04564,0.40106 -2.09782,0.78162 -3.15625,1.15625 l -5.625,-15.875 c 0.9181,-0.32491 1.84296,-0.65224 2.75,-1 z M 316.5,804.71875 c 0.93895,0.33294 1.89358,0.66008 2.84375,0.96875 l -5.21875,16.03125 c -1.0926,-0.35487 -2.1703,-0.74219 -3.25,-1.125 l 5.625,-15.875 z m 72.78125,1 5.1875,16 c -1.08544,0.352 -2.18351,0.70724 -3.28125,1.03125 l -4.78125,-16.15625 c 0.96208,-0.28382 1.92378,-0.56649 2.875,-0.875 z m -67.125,0.875 c 0.94534,0.27982 1.88826,0.52564 2.84375,0.78125 l -4.375,16.25 c -1.08469,-0.29038 -2.17669,-0.58872 -3.25,-0.90625 l 4.78125,-16.125 z m 61.4375,0.8125 4.34375,16.25 c -1.07004,0.28568 -2.13803,0.55362 -3.21875,0.8125 l -3.9375,-16.375 c 0.94378,-0.22589 1.87807,-0.43813 2.8125,-0.6875 z m -55.6875,0.6875 c 0.96238,0.23025 1.93449,0.45076 2.90625,0.65625 l -3.5,16.46875 c -1.12167,-0.23709 -2.23295,-0.48419 -3.34375,-0.75 l 3.9375,-16.375 z m 49.9375,0.65625 3.5,16.46875 c -1.11096,0.23483 -2.22252,0.48124 -3.34375,0.6875 l -3.0625,-16.5625 c 0.9731,-0.1789 1.94203,-0.39013 2.90625,-0.59375 z m -44.125,0.59375 c 0.97246,0.17884 1.95651,0.34619 2.9375,0.5 L 334,826.46875 c -1.11794,-0.17558 -2.23546,-0.35862 -3.34375,-0.5625 l 3.0625,-16.5625 z m 38.3125,0.46875 2.65625,16.65625 c -1.148,0.18058 -2.31098,0.31842 -3.46875,0.46875 l -2.1875,-16.65625 c 1.00759,-0.13065 2.00091,-0.31178 3,-0.46875 z m -32.5,0.4375 c 0.96577,0.12607 1.93298,0.24218 2.90625,0.34375 l -1.75,16.75 c -1.11596,-0.11631 -2.23637,-0.26189 -3.34375,-0.40625 l 2.1875,-16.6875 z m 26.59375,0.34375 1.75,16.75 c -1.10309,0.11419 -2.2014,0.22607 -3.3125,0.3125 l -1.34375,-16.8125 c 0.96866,-0.0753 1.94459,-0.15044 2.90625,-0.25 z m -20.65625,0.28125 c 0.95753,0.0742 1.91094,0.13731 2.875,0.1875 l -0.875,16.8125 c -1.11936,-0.0581 -2.23206,-0.13254 -3.34375,-0.21875 l 1.34375,-16.78125 z m 14.75,0.1875 0.875,16.8125 c -1.12876,0.0578 -2.27007,0.12746 -3.40625,0.15625 L 357.25,811.1875 c 0.99181,-0.0251 1.98343,-0.0745 2.96875,-0.125 z m -8.875,0.125 c 0.99151,0.0257 2.00231,0.0313 3,0.0313 l 0,16.84375 c -0.0104,0 -0.0209,0 -0.0313,0 -1.15341,0 -2.29129,-0.001 -3.4375,-0.0313 l 0.46875,-16.84375 z"
       id="path4659"
       style="fill:#231f20;fill-opacity:0;fill-rule:nonzero;stroke:#000000;stroke-width:0.35433072;stroke-miterlimit:4;stroke-opacity:1;stroke-dasharray:none" />
  </g>
</svg>
