<?xml version="1.0" encoding="UTF-8" standalone="no"?>
<!-- Created with Inkscape (http://www.inkscape.org/) -->

<svg
   xmlns:dc="http://purl.org/dc/elements/1.1/"
   xmlns:cc="http://creativecommons.org/ns#"
   xmlns:rdf="http://www.w3.org/1999/02/22-rdf-syntax-ns#"
   xmlns:svg="http://www.w3.org/2000/svg"
   xmlns="http://www.w3.org/2000/svg"
   version="1.1"
   width="744.09448"
   height="1052.3622"
   id="svg2">
  <defs
     id="defs4">
    <clipPath
       id="clipPath3071">
      <path
         d="m 0,0 5950,0 0,7920 L 0,7920 0,0 z"
         id="path3073" />
    </clipPath>
    <clipPath
       id="clipPath3296">
      <path
         d="m 0,0 5950,0 0,7920 L 0,7920 0,0 z"
         id="path3298" />
    </clipPath>
    <clipPath
       id="clipPath4655">
      <path
         d="m 0,0 5950,0 0,7920 L 0,7920 0,0 z"
         id="path4657" />
    </clipPath>
    <clipPath
       id="clipPath3129">
      <path
         d="m 0,0 5950,0 0,7920 L 0,7920 0,0 z"
         id="path3131-9" />
    </clipPath>
  </defs>
  <metadata
     id="metadata7">
    <rdf:RDF>
      <cc:Work
         rdf:about="">
        <dc:format>image/svg+xml</dc:format>
        <dc:type
           rdf:resource="http://purl.org/dc/dcmitype/StillImage" />
        <dc:title></dc:title>
      </cc:Work>
    </rdf:RDF>
  </metadata>
  <g
     id="layer1">
    <path
       d="m 354.34375,564.46875 c -73.76319,0 -133.5625,59.79937 -133.5625,133.5625 0,73.76319 59.79931,133.5625 133.5625,133.5625 73.76313,0 133.5625,-59.79931 133.5625,-133.5625 0,-73.76313 -59.79937,-133.5625 -133.5625,-133.5625 z m 0,3.53125 c 0.74445,0 1.47727,0.0188 2.21875,0.0313 l -0.28125,16.84375 c -0.64858,-0.0109 -1.28631,-0.0313 -1.9375,-0.0313 l 0,-16.84375 z m -2.3125,0.0313 0.28125,16.84375 c -0.64499,0.0113 -1.29518,0.009 -1.9375,0.0313 l -0.59375,-16.8125 c 0.74537,-0.0256 1.50149,-0.0495 2.25,-0.0625 z m 6.875,0.0625 c 0.73867,0.0255 1.48326,0.0559 2.21875,0.0937 L 360.25,585 c -0.64332,-0.0331 -1.29138,-0.0714 -1.9375,-0.0937 l 0.59375,-16.8125 z m -11.4375,0.0937 0.875,16.8125 c -0.64978,0.0338 -1.29067,0.0803 -1.9375,0.125 l -1.1875,-16.8125 c 0.74893,-0.0518 1.49763,-0.086 2.25,-0.125 z m 15.875,0.125 c 0.7742,0.053 1.54208,0.12104 2.3125,0.1875 l -1.46875,16.78125 c -0.66456,-0.0574 -1.33221,-0.11042 -2,-0.15625 l 1.15625,-16.8125 z M 343,568.5 l 1.46875,16.78125 c -0.6762,0.0584 -1.3585,0.11729 -2.03125,0.1875 l -1.75,-16.75 c 0.7703,-0.0803 1.53826,-0.15196 2.3125,-0.21875 z m 24.90625,0.21875 c 0.7383,0.0766 1.48417,0.1611 2.21875,0.25 l -2.03125,16.71875 c -0.65487,-0.0794 -1.31049,-0.1506 -1.96875,-0.21875 l 1.78125,-16.75 z M 338.4375,569 340.5,585.6875 c -0.63854,0.0778 -1.27104,0.16165 -1.90625,0.25 L 336.25,569.28125 c 0.72738,-0.10126 1.45632,-0.19208 2.1875,-0.28125 z m 34,0.28125 c 0.75492,0.10518 1.49929,0.19441 2.25,0.3125 L 372.03125,586.25 c -0.64557,-0.10143 -1.28835,-0.22203 -1.9375,-0.3125 l 2.34375,-16.65625 z m -38.4375,0.3125 2.65625,16.625 c -0.65572,0.10281 -1.31681,0.22973 -1.96875,0.34375 L 331.75,569.96875 c 0.74705,-0.13082 1.49862,-0.25699 2.25,-0.375 z m 42.9375,0.375 c 0.74135,0.13 1.48178,0.26374 2.21875,0.40625 l -3.21875,16.5625 c -0.64354,-0.12435 -1.29012,-0.2616 -1.9375,-0.375 l 2.9375,-16.59375 z m -47.40625,0.40625 3.21875,16.53125 c -0.65241,0.12595 -1.28913,0.26915 -1.9375,0.40625 l -3.5,-16.46875 c 0.73851,-0.1561 1.47567,-0.32524 2.21875,-0.46875 z m 51.84375,0.46875 c 0.74097,0.15681 1.4825,0.29938 2.21875,0.46875 l -3.8125,16.40625 c -0.63258,-0.14526 -1.26967,-0.27164 -1.90625,-0.40625 l 3.5,-16.46875 z m -56.3125,0.46875 3.8125,16.40625 c -0.65364,0.15029 -1.31949,0.3072 -1.96875,0.46875 l -4.0625,-16.34375 c 0.73936,-0.18394 1.47444,-0.36003 2.21875,-0.53125 z m 60.6875,0.53125 c 0.73947,0.18359 1.48434,0.36631 2.21875,0.5625 l -4.34375,16.25 c -0.64382,-0.172 -1.28922,-0.30787 -1.9375,-0.46875 l 4.0625,-16.34375 z m -65.15625,0.59375 4.375,16.25 c -0.61857,0.16566 -1.22941,0.32417 -1.84375,0.5 L 318.5,573 c 0.69422,-0.19865 1.39483,-0.37515 2.09375,-0.5625 z M 390.1875,573 c 0.72514,0.20752 1.43635,0.43651 2.15625,0.65625 l -4.9375,16.09375 c -0.61921,-0.18887 -1.25134,-0.38402 -1.875,-0.5625 L 390.1875,573 z m -73.90625,0.65625 4.9375,16.125 c -0.63668,0.19458 -1.27439,0.3883 -1.90625,0.59375 l -5.21875,-16.03125 c 0.72515,-0.23571 1.45682,-0.46425 2.1875,-0.6875 z m 78.21875,0.6875 c 0.74367,0.24135 1.48102,0.49567 2.21875,0.75 L 391.25,591 c -0.65577,-0.22621 -1.30759,-0.44182 -1.96875,-0.65625 l 5.21875,-16 z m -82.53125,0.75 L 317.4375,591 c -0.6139,0.21159 -1.23468,0.43445 -1.84375,0.65625 l -5.75,-15.8125 c 0.7056,-0.25695 1.41375,-0.50498 2.125,-0.75 z m 86.875,0.75 c 0.67946,0.2476 1.35714,0.49144 2.03125,0.75 l -6.03125,15.71875 c -0.58058,-0.22259 -1.16487,-0.44299 -1.75,-0.65625 l 5.75,-15.8125 z m -91.125,0.78125 6.03125,15.71875 c -0.63016,0.24217 -1.25033,0.49694 -1.875,0.75 l -6.3125,-15.625 c 0.7153,-0.28964 1.43468,-0.56654 2.15625,-0.84375 z M 403,577.4375 c 0.72849,0.29433 1.46563,0.56792 2.1875,0.875 l -6.59375,15.53125 c -0.62523,-0.26601 -1.24407,-0.52623 -1.875,-0.78125 L 403,577.4375 z m -99.5,0.875 6.59375,15.53125 c -0.614,0.26105 -1.23536,0.50972 -1.84375,0.78125 l -6.84375,-15.375 c 0.69517,-0.31016 1.3922,-0.63925 2.09375,-0.9375 z m 103.6875,0.90625 c 0.69142,0.30804 1.37751,0.61781 2.0625,0.9375 l -7.125,15.25 c -0.59,-0.27526 -1.18577,-0.54717 -1.78125,-0.8125 l 6.84375,-15.375 z m -107.8125,0.96875 7.09375,15.25 c -0.59607,0.27854 -1.19089,0.55518 -1.78125,0.84375 l -7.375,-15.125 c 0.68329,-0.33397 1.37255,-0.64647 2.0625,-0.96875 z m 111.90625,0.9375 c 0.68553,0.33461 1.38379,0.65375 2.0625,1 l -7.625,15.03125 c -0.6053,-0.30908 -1.20096,-0.60781 -1.8125,-0.90625 l 7.375,-15.125 z m -116.03125,1.03125 7.65625,15.03125 c -0.59099,0.30206 -1.19632,0.59417 -1.78125,0.90625 l -7.90625,-14.875 c 0.67428,-0.35963 1.34996,-0.71447 2.03125,-1.0625 z m 120.125,1.03125 c 0.66097,0.35208 1.31464,0.73066 1.96875,1.09375 l -8.15625,14.75 c -0.5741,-0.31884 -1.13858,-0.65966 -1.71875,-0.96875 l 7.90625,-14.875 z m -124.125,1.125 8.1875,14.71875 c -0.57587,0.32 -1.1491,0.63904 -1.71875,0.96875 l -8.40625,-14.5625 c 0.64676,-0.37431 1.28375,-0.76158 1.9375,-1.125 z m 128.125,1.125 c 0.64178,0.37144 1.27147,0.74296 1.90625,1.125 l -8.65625,14.40625 c -0.54091,-0.32557 -1.1095,-0.62077 -1.65625,-0.9375 L 419.375,585.4375 z m -132,1.125 8.65625,14.40625 c -0.57501,0.34609 -1.15045,0.70653 -1.71875,1.0625 l -8.90625,-14.25 c 0.65401,-0.40969 1.307,-0.82045 1.96875,-1.21875 z m 135.875,1.21875 c 0.62733,0.39298 1.25492,0.78417 1.875,1.1875 l -9.1875,14.125 c -0.53349,-0.34682 -1.0541,-0.72448 -1.59375,-1.0625 l 8.90625,-14.25 z M 283.5,589 l 9.15625,14.125 c -0.55172,0.3592 -1.07999,0.72524 -1.625,1.09375 L 281.59375,590.25 c 0.62816,-0.42468 1.27033,-0.83607 1.90625,-1.25 z m 143.59375,1.25 c 0.60268,0.40763 1.18583,0.83258 1.78125,1.25 l -9.625,13.8125 c -0.53285,-0.37382 -1.05421,-0.72894 -1.59375,-1.09375 l 9.4375,-13.96875 z m -147.3125,1.25 9.65625,13.8125 c -0.55638,0.39018 -1.10728,0.78762 -1.65625,1.1875 L 277.875,592.875 c 0.63321,-0.46115 1.26447,-0.92508 1.90625,-1.375 z m 151,1.375 c 0.58411,0.42539 1.17331,0.84642 1.75,1.28125 l -10.125,13.46875 c -0.5066,-0.38196 -1.01808,-0.78266 -1.53125,-1.15625 l 9.90625,-13.59375 z m -154.71875,1.3125 10.15625,13.46875 c -0.5177,0.39079 -1.05178,0.78808 -1.5625,1.1875 l -10.375,-13.25 c 0.59664,-0.46689 1.17631,-0.94962 1.78125,-1.40625 z m 158.34375,1.40625 c 0.59103,0.46268 1.16725,0.93363 1.75,1.40625 l -10.59375,13.0625 c -0.51148,-0.41471 -1.01245,-0.81284 -1.53125,-1.21875 l 10.375,-13.25 z M 272.5,597 l 10.59375,13.0625 c -0.51866,0.42053 -1.02023,0.85179 -1.53125,1.28125 L 270.75,598.4375 c 0.57852,-0.48607 1.16295,-0.96139 1.75,-1.4375 z m 165.4375,1.4375 c 0.57029,0.47932 1.12563,0.97987 1.6875,1.46875 L 428.59375,612.625 c -0.49414,-0.43005 -0.99838,-0.85969 -1.5,-1.28125 L 437.9375,598.4375 z m -168.9375,1.5 11.03125,12.6875 c -0.49419,0.43027 -0.98216,0.87385 -1.46875,1.3125 l -11.25,-12.5 c 0.55868,-0.50365 1.1201,-1.00597 1.6875,-1.5 z m 172.34375,1.5 c 0.5536,0.49906 1.11134,0.99162 1.65625,1.5 L 431.53125,615.25 c -0.4766,-0.44472 -0.95327,-0.87597 -1.4375,-1.3125 l 11.25,-12.5 z m -175.6875,1.5 11.5,12.3125 c -0.49081,0.4578 -0.98615,0.90864 -1.46875,1.375 L 264,604.53125 c 0.55148,-0.53296 1.09543,-1.07053 1.65625,-1.59375 z M 444.625,604.5 c 0.5479,0.52909 1.11769,1.05519 1.65625,1.59375 L 434.375,618 c -0.46462,-0.46462 -0.9649,-0.91848 -1.4375,-1.375 L 444.625,604.5 z M 262.40625,606.09375 274.28125,618 c -0.4669,0.4669 -0.91627,0.93128 -1.375,1.40625 l -12.09375,-11.6875 c 0.52772,-0.54643 1.05661,-1.08786 1.59375,-1.625 z M 447.875,607.75 c 0.51341,0.53193 1.02689,1.05315 1.53125,1.59375 l -12.3125,11.5 c -0.44091,-0.47254 -0.8949,-0.94133 -1.34375,-1.40625 L 447.875,607.75 z m -188.625,1.59375 12.34375,11.5 c -0.45674,0.48941 -0.9269,0.97129 -1.375,1.46875 L 257.6875,611.03125 c 0.51239,-0.56891 1.04028,-1.12775 1.5625,-1.6875 z M 450.90625,611 c 0.51474,0.57095 1.05781,1.13869 1.5625,1.71875 L 439.75,623.78125 c -0.44307,-0.50927 -0.89178,-0.99879 -1.34375,-1.5 L 450.90625,611 z m -194.75,1.75 12.71875,11.0625 c -0.42855,0.49298 -0.8299,0.99959 -1.25,1.5 l -12.90625,-10.84375 c 0.48223,-0.57428 0.94558,-1.15299 1.4375,-1.71875 z m 197.75,1.6875 c 0.49558,0.58977 0.98353,1.18262 1.46875,1.78125 l -13.09375,10.59375 c -0.4191,-0.51697 -0.85328,-1.02187 -1.28125,-1.53125 l 12.90625,-10.84375 z m -200.625,1.75 13.09375,10.59375 c -0.4089,0.50418 -0.8184,1.01995 -1.21875,1.53125 L 251.875,617.9375 c 0.4597,-0.58721 0.93673,-1.17096 1.40625,-1.75 z m 203.5,1.78125 c 0.47333,0.60485 0.94347,1.23038 1.40625,1.84375 l -13.4375,10.125 c -0.40298,-0.53424 -0.80658,-1.06694 -1.21875,-1.59375 l 13.25,-10.375 z m -206.3125,1.84375 13.4375,10.125 c -0.39177,0.51938 -0.77328,1.03621 -1.15625,1.5625 l -13.59375,-9.90625 c 0.43763,-0.60114 0.86488,-1.18796 1.3125,-1.78125 z m 209.03125,1.75 c 0.45367,0.62282 0.90094,1.24388 1.34375,1.875 l -13.78125,9.6875 c -0.39067,-0.55721 -0.7871,-1.10646 -1.1875,-1.65625 L 459.5,621.5625 z m -211.6875,1.90625 13.78125,9.65625 c -0.37113,0.52933 -0.76276,1.05783 -1.125,1.59375 l -13.9375,-9.40625 c 0.41468,-0.61337 0.85644,-1.2379 1.28125,-1.84375 z m 214.3125,1.8125 c 0.44113,0.65222 0.85172,1.30817 1.28125,1.96875 l -14.125,9.15625 c -0.36816,-0.56604 -0.74705,-1.12852 -1.125,-1.6875 l 13.96875,-9.4375 z M 245.25,627.25 l 14.125,9.15625 c -0.35479,0.54547 -0.68566,1.10434 -1.03125,1.65625 L 244.0625,629.125 c 0.39217,-0.62621 0.78501,-1.25601 1.1875,-1.875 z m 219.34375,1.84375 c 0.405,0.6464 0.79361,1.31478 1.1875,1.96875 l -14.4375,8.65625 c -0.34092,-0.56595 -0.68077,-1.12806 -1.03125,-1.6875 l 14.28125,-8.9375 z m -221.71875,1.96875 14.4375,8.65625 c -0.34648,0.57521 -0.69477,1.13694 -1.03125,1.71875 l -14.59375,-8.40625 c 0.3856,-0.66675 0.79047,-1.30956 1.1875,-1.96875 z M 466.9375,633 c 0.38981,0.67351 0.77825,1.35016 1.15625,2.03125 l -14.75,8.15625 c -0.32761,-0.59013 -0.63096,-1.19765 -0.96875,-1.78125 L 466.9375,633 z m -226.375,2.0625 14.75,8.15625 c -0.31156,0.56161 -0.63526,1.12008 -0.9375,1.6875 L 239.5,637 c 0.3463,-0.65013 0.70554,-1.294 1.0625,-1.9375 z M 469.15625,637 c 0.35501,0.66646 0.71882,1.32669 1.0625,2 l -15.03125,7.65625 c -0.30016,-0.58816 -0.59617,-1.16784 -0.90625,-1.75 L 469.15625,637 z m -230.71875,2.03125 15,7.65625 c -0.29927,0.58697 -0.58572,1.18842 -0.875,1.78125 l -15.15625,-7.375 c 0.33803,-0.69286 0.68134,-1.3766 1.03125,-2.0625 z m 232.78125,2.03125 c 0.33409,0.68424 0.67763,1.37159 1,2.0625 l -15.25,7.125 c -0.28407,-0.6092 -0.58046,-1.20926 -0.875,-1.8125 l 15.125,-7.375 z m -234.78125,2.0625 15.28125,7.09375 c -0.2769,0.59333 -0.54564,1.18237 -0.8125,1.78125 L 235.5,645.15625 c 0.30361,-0.68119 0.62258,-1.35631 0.9375,-2.03125 z m 236.71875,2.03125 c 0.3027,0.67916 0.58366,1.34601 0.875,2.03125 l -15.5,6.59375 c -0.25195,-0.59261 -0.48828,-1.19387 -0.75,-1.78125 l 15.375,-6.84375 z m -238.5625,2.0625 15.5,6.59375 c -0.25346,0.59677 -0.47529,1.21053 -0.71875,1.8125 l -15.625,-6.3125 c 0.28157,-0.69635 0.55053,-1.40345 0.84375,-2.09375 z m 240.34375,2.125 c 0.28493,0.70529 0.5709,1.41364 0.84375,2.125 l -15.75,6.03125 c -0.23578,-0.61442 -0.47262,-1.23454 -0.71875,-1.84375 l 15.625,-6.3125 z m -242.0625,2.125 15.75,6.03125 c -0.23057,0.60084 -0.46693,1.20678 -0.6875,1.8125 l -15.84375,-5.78125 c 0.25171,-0.69134 0.5182,-1.37669 0.78125,-2.0625 z m 121.46875,1.34375 c 24.96961,0 45.1875,20.24914 45.1875,45.21875 0,24.96961 -20.21789,45.21875 -45.1875,45.21875 -24.96961,0 -45.21875,-20.24914 -45.21875,-45.21875 0,-24.96961 20.24914,-45.21875 45.21875,-45.21875 z m 122.1875,0.6875 c 0.25809,0.7082 0.50393,1.44236 0.75,2.15625 l -15.90625,5.5 c -0.21772,-0.63227 -0.42769,-1.24786 -0.65625,-1.875 L 476.53125,653.5 z m -245.15625,2.15625 15.90625,5.5 c -0.22139,0.64291 -0.44618,1.28941 -0.65625,1.9375 l -16,-5.1875 c 0.24404,-0.75263 0.49268,-1.50346 0.75,-2.25 z m 246.65625,2.21875 c 0.23555,0.72587 0.43319,1.4561 0.65625,2.1875 l -16.0625,4.90625 c -0.19199,-0.62962 -0.42238,-1.25009 -0.625,-1.875 l 16.03125,-5.21875 z m -248.0625,2.15625 16.09375,4.9375 c -0.18858,0.61828 -0.38427,1.22103 -0.5625,1.84375 l -16.1875,-4.625 c 0.20752,-0.72514 0.43651,-1.43635 0.65625,-2.15625 z m 249.375,2.15625 c 0.20793,0.7266 0.3982,1.45576 0.59375,2.1875 l -16.28125,4.375 c -0.16893,-0.6324 -0.32044,-1.27826 -0.5,-1.90625 l 16.1875,-4.65625 z m -250.625,2.21875 16.25,4.34375 c -0.17141,0.64186 -0.33965,1.2912 -0.5,1.9375 L 228.125,666.625 c 0.1847,-0.74479 0.39627,-1.47909 0.59375,-2.21875 z m 251.8125,2.21875 c 0.17569,0.70846 0.36723,1.41201 0.53125,2.125 l -16.40625,3.8125 c -0.14463,-0.62902 -0.31369,-1.25003 -0.46875,-1.875 l 16.34375,-4.0625 z M 227.59375,668.75 244,672.53125 c -0.15016,0.65228 -0.26742,1.31222 -0.40625,1.96875 L 227.125,671 c 0.15874,-0.75101 0.2971,-1.50383 0.46875,-2.25 z m 253.9375,2.25 c 0.15588,0.73745 0.29418,1.47674 0.4375,2.21875 l -16.53125,3.21875 c -0.12483,-0.64599 -0.23924,-1.29547 -0.375,-1.9375 l 16.46875,-3.5 z m -254.84375,2.25 16.5,3.1875 c -0.12421,0.64299 -0.23047,1.29069 -0.34375,1.9375 l -16.5625,-2.90625 c 0.12985,-0.74252 0.26386,-1.48062 0.40625,-2.21875 z m 255.6875,2.1875 c 0.13082,0.74705 0.25699,1.49862 0.375,2.25 l -16.59375,2.65625 c -0.10396,-0.66289 -0.22833,-1.30973 -0.34375,-1.96875 l 16.5625,-2.9375 z m -256.46875,2.25 16.59375,2.625 c -0.10208,0.64973 -0.15902,1.3154 -0.25,1.96875 l -16.6875,-2.34375 c 0.10443,-0.75025 0.22657,-1.5039 0.34375,-2.25 z m 257.1875,2.25 c 0.10669,0.76648 0.21923,1.5418 0.3125,2.3125 l -16.71875,2.03125 c -0.0807,-0.66619 -0.18899,-1.33743 -0.28125,-2 l 16.6875,-2.34375 z M 225.25,682.25 l 16.71875,2.0625 c -0.0766,0.63359 -0.15265,1.26948 -0.21875,1.90625 l -16.75,-1.75 c 0.0766,-0.7383 0.1611,-1.48417 0.25,-2.21875 z m 258.40625,2.1875 c 0.0778,0.74834 0.12244,1.49794 0.1875,2.25 l -16.75,1.46875 c -0.0563,-0.65115 -0.12024,-1.28955 -0.1875,-1.9375 l 16.75,-1.78125 z m -258.84375,2.25 16.75,1.46875 c -0.0584,0.67595 -0.10976,1.35196 -0.15625,2.03125 L 224.625,689 c 0.0532,-0.77439 0.12083,-1.5419 0.1875,-2.3125 z M 484.03125,689 c 0.0514,0.74924 0.11756,1.49733 0.15625,2.25 l -16.8125,0.875 c -0.0331,-0.64291 -0.0812,-1.29747 -0.125,-1.9375 L 484.03125,689 z m -259.5625,2.25 16.8125,0.875 c -0.0331,0.64282 -0.0402,1.29189 -0.0625,1.9375 L 224.375,693.46875 c 0.0255,-0.73863 0.0559,-1.4833 0.0937,-2.21875 z m 259.8125,2.21875 c 0.0269,0.77968 0.0181,1.56064 0.0313,2.34375 L 467.5,696.09375 c -0.0115,-0.67996 -0.0391,-1.35426 -0.0625,-2.03125 l 16.84375,-0.59375 z m -259.9375,2.34375 16.84375,0.28125 c -0.011,0.64858 -0.0313,1.28631 -0.0313,1.9375 l -16.84375,0 c 0,-0.74455 0.0188,-1.47717 0.0313,-2.21875 z m 243.1875,2.21875 16.8125,0 c 0,0.77601 -0.0177,1.53973 -0.0313,2.3125 L 467.5,700.0625 c 0.012,-0.6797 0.0313,-1.34868 0.0313,-2.03125 z M 241.1875,700.0625 c 0.0115,0.64834 0.009,1.29186 0.0313,1.9375 l -16.84375,0.59375 c -0.0259,-0.74849 -0.0181,-1.49835 -0.0313,-2.25 l 16.84375,-0.28125 z m 226.25,1.9375 16.84375,0.59375 c -0.0266,0.76998 -0.0538,1.54597 -0.0937,2.3125 l -16.8125,-0.875 c 0.0353,-0.67365 0.0391,-1.35453 0.0625,-2.03125 z m -226.15625,2.03125 c 0.0331,0.63245 0.0816,1.27659 0.125,1.90625 L 224.625,707.125 c -0.0511,-0.73878 -0.11757,-1.47662 -0.15625,-2.21875 l 16.8125,-0.875 z m 225.96875,1.90625 16.78125,1.1875 c -0.0514,0.74315 -0.12369,1.47909 -0.1875,2.21875 l -16.75,-1.46875 c 0.0556,-0.64512 0.11154,-1.28933 0.15625,-1.9375 z m -225.6875,1.9375 c 0.0588,0.68232 0.11667,1.35245 0.1875,2.03125 l -16.75,1.75 c -0.0801,-0.76888 -0.12083,-1.5397 -0.1875,-2.3125 l 16.75,-1.46875 z m 225.34375,2.03125 16.75,1.78125 c -0.0771,0.73815 -0.16059,1.48433 -0.25,2.21875 l -16.75,-2.0625 c 0.0785,-0.6449 0.18236,-1.2893 0.25,-1.9375 z M 242,711.84375 c 0.0785,0.64435 0.16075,1.29653 0.25,1.9375 l -16.6875,2.34375 c -0.10245,-0.73601 -0.22243,-1.47885 -0.3125,-2.21875 l 16.75,-2.0625 z m 224.40625,1.9375 16.6875,2.34375 c -0.10443,0.75025 -0.22657,1.5039 -0.34375,2.25 l -16.59375,-2.65625 c 0.10031,-0.63957 0.16045,-1.29442 0.25,-1.9375 z M 242.5,715.75 c 0.10253,0.65261 0.23011,1.28864 0.34375,1.9375 l -16.5625,2.90625 c -0.12888,-0.73702 -0.25859,-1.47752 -0.375,-2.21875 L 242.5,715.75 z m 223.3125,1.9375 16.5625,2.9375 c -0.13002,0.74249 -0.26369,1.48065 -0.40625,2.21875 L 465.4375,719.625 c 0.12462,-0.64489 0.26138,-1.28876 0.375,-1.9375 z m -222.625,1.9375 c 0.12517,0.64792 0.27008,1.29357 0.40625,1.9375 l -16.46875,3.5 c -0.15799,-0.74746 -0.29241,-1.49787 -0.4375,-2.25 l 16.5,-3.1875 z m 221.875,1.9375 16.46875,3.5 c -0.15664,0.74103 -0.29955,1.48243 -0.46875,2.21875 L 464.65625,723.5 c 0.14771,-0.64243 0.26953,-1.29095 0.40625,-1.9375 z M 244,723.5 c 0.14747,0.64138 0.34168,1.26908 0.5,1.90625 L 228.15625,729.5 c -0.18398,-0.74023 -0.39127,-1.47357 -0.5625,-2.21875 L 244,723.5 z M 464.15625,725.4375 480.5,729.5 c -0.18756,0.75463 -0.39307,1.50064 -0.59375,2.25 l -16.25,-4.375 c 0.17178,-0.6417 0.33927,-1.29136 0.5,-1.9375 z M 245,727.34375 c 0.16911,0.63241 0.32026,1.27826 0.5,1.90625 l -16.1875,4.625 c -0.20517,-0.71693 -0.40064,-1.43431 -0.59375,-2.15625 L 245,727.34375 z m 218.15625,1.875 16.1875,4.65625 c -0.21304,0.74443 -0.43034,1.47985 -0.65625,2.21875 l -16.09375,-4.90625 c 0.20083,-0.65652 0.37335,-1.30721 0.5625,-1.96875 z M 246.0625,731.1875 c 0.1886,0.61656 0.39495,1.23172 0.59375,1.84375 l -16,5.21875 c -0.2338,-0.71917 -0.46596,-1.43164 -0.6875,-2.15625 L 246.0625,731.1875 z M 462,733.0625 478,738.25 c -0.23438,0.72095 -0.47218,1.44089 -0.71875,2.15625 l -15.90625,-5.5 c 0.21075,-0.61201 0.4245,-1.22704 0.625,-1.84375 z m -214.71875,1.84375 c 0.21449,0.62288 0.43125,1.22584 0.65625,1.84375 l -15.84375,5.75 c -0.2499,-0.68686 -0.48016,-1.40154 -0.71875,-2.09375 l 15.90625,-5.5 z m 213.4375,1.84375 15.8125,5.78125 c -0.25854,0.70993 -0.51075,1.42091 -0.78125,2.125 L 460,738.59375 c 0.23558,-0.61324 0.49359,-1.22543 0.71875,-1.84375 z m -212.0625,1.84375 c 0.23952,0.6235 0.46857,1.25687 0.71875,1.875 l -15.625,6.3125 c -0.2853,-0.70512 -0.57052,-1.4138 -0.84375,-2.125 l 15.75,-6.0625 z m 210.625,1.875 15.625,6.3125 c -0.28332,0.70023 -0.57989,1.39964 -0.875,2.09375 l -15.5,-6.59375 c 0.25536,-0.60063 0.50477,-1.2066 0.75,-1.8125 z M 250.09375,742.25 c 0.26661,0.62773 0.56619,1.25314 0.84375,1.875 l -15.40625,6.84375 c -0.31825,-0.71301 -0.63178,-1.40528 -0.9375,-2.125 l 15.5,-6.59375 z m 207.65625,1.875 15.375,6.84375 c -0.30386,0.68076 -0.62234,1.35674 -0.9375,2.03125 l -15.25,-7.125 c 0.2726,-0.58365 0.54961,-1.16098 0.8125,-1.75 z m -206,1.78125 c 0.27169,0.58121 0.56253,1.14297 0.84375,1.71875 l -15.15625,7.40625 c -0.32407,-0.66334 -0.6557,-1.33039 -0.96875,-2 l 15.28125,-7.125 z m 204.3125,1.75 15.15625,7.40625 c -0.33443,0.68418 -0.68522,1.35388 -1.03125,2.03125 l -15,-7.65625 c 0.29962,-0.58676 0.58537,-1.18863 0.875,-1.78125 z m -202.59375,1.78125 c 0.30672,0.60065 0.62043,1.18687 0.9375,1.78125 l -14.875,7.90625 c -0.36412,-0.68269 -0.71027,-1.37262 -1.0625,-2.0625 l 15,-7.625 z m 200.78125,1.78125 14.875,7.90625 c -0.35329,0.66239 -0.72939,1.31326 -1.09375,1.96875 L 453.3125,752.9375 c 0.3173,-0.57073 0.62984,-1.14202 0.9375,-1.71875 z m -198.90625,1.6875 c 0.31522,0.56739 0.61286,1.1574 0.9375,1.71875 l -14.59375,8.40625 c -0.37079,-0.64114 -0.73365,-1.2895 -1.09375,-1.9375 l 14.75,-8.1875 z m 197.03125,1.75 14.5625,8.40625 c -0.37144,0.64178 -0.74296,1.27147 -1.125,1.90625 L 451.375,756.3125 c 0.33231,-0.55213 0.6769,-1.09804 1,-1.65625 z m -195.09375,1.65625 c 0.34111,0.56678 0.68055,1.12724 1.03125,1.6875 l -14.28125,8.90625 c -0.40005,-0.63924 -0.79832,-1.29087 -1.1875,-1.9375 l 14.4375,-8.65625 z M 450.3125,758 l 14.28125,8.9375 c -0.40454,0.64595 -0.80324,1.29923 -1.21875,1.9375 l -14.125,-9.15625 c 0.36772,-0.5646 0.70464,-1.14724 1.0625,-1.71875 z m -190.90625,1.71875 c 0.35267,0.54148 0.70087,1.08998 1.0625,1.625 l -13.9375,9.40625 c -0.42316,-0.62591 -0.83752,-1.24139 -1.25,-1.875 l 14.125,-9.15625 z m 188.75,1.625 13.96875,9.4375 c -0.40907,0.60481 -0.83108,1.21501 -1.25,1.8125 l -13.8125,-9.65625 c 0.36773,-0.5245 0.73474,-1.06278 1.09375,-1.59375 z m -186.5625,1.59375 c 0.38227,0.54522 0.76467,1.08689 1.15625,1.625 l -13.625,9.875 c -0.44521,-0.61198 -0.87777,-1.22376 -1.3125,-1.84375 l 13.78125,-9.65625 z m 184.28125,1.625 13.625,9.90625 c -0.4491,0.61679 -0.88413,1.23523 -1.34375,1.84375 l -13.4375,-10.15625 c 0.39706,-0.52596 0.76822,-1.06069 1.15625,-1.59375 z m -181.9375,1.625 c 0.39832,0.52739 0.81147,1.04236 1.21875,1.5625 L 251.875,778.125 c -0.4645,-0.59333 -0.92065,-1.21096 -1.375,-1.8125 l 13.4375,-10.125 z m 179.59375,1.53125 13.25,10.375 c -0.45969,0.58742 -0.93674,1.17075 -1.40625,1.75 L 442.28125,769.25 c 0.41292,-0.50936 0.8458,-1.01464 1.25,-1.53125 z M 266.375,769.25 c 0.4098,0.50551 0.83171,1.00175 1.25,1.5 l -12.90625,10.84375 c -0.48589,-0.57864 -0.96157,-1.16284 -1.4375,-1.75 L 266.375,769.25 z M 441,770.78125 453.90625,781.625 c -0.49173,0.58519 -0.96696,1.17367 -1.46875,1.75 l -12.71875,-11.0625 c 0.43902,-0.50422 0.85107,-1.01924 1.28125,-1.53125 z m -172.0625,1.5 c 0.42053,0.4832 0.8527,0.96155 1.28125,1.4375 L 257.6875,785 c -0.4902,-0.54447 -0.98767,-1.10351 -1.46875,-1.65625 l 12.71875,-11.0625 z m 169.5,1.5 12.5,11.28125 c -0.49294,0.54694 -0.99797,1.08653 -1.5,1.625 L 437.125,775.21875 c 0.43994,-0.47168 0.88058,-0.95835 1.3125,-1.4375 z m -166.875,1.4375 c 0.45831,0.49127 0.90811,0.9857 1.375,1.46875 l -12.09375,11.6875 c -0.53296,-0.55148 -1.07053,-1.09543 -1.59375,-1.65625 l 12.3125,-11.5 z m 164.15625,1.4375 12.125,11.71875 c -0.52124,0.53949 -1.03207,1.06332 -1.5625,1.59375 L 434.375,778.0625 c 0.46174,-0.46174 0.89,-0.93662 1.34375,-1.40625 z m -161.4375,1.40625 c 0.45937,0.45937 0.93907,0.92354 1.40625,1.375 L 264,791.53125 c -0.53564,-0.51765 -1.06704,-1.03579 -1.59375,-1.5625 -0.005,-0.005 0.005,-0.026 0,-0.0313 l 11.875,-11.875 z m 158.65625,1.375 11.6875,12.125 c -0.53963,0.5211 -1.07644,1.05072 -1.625,1.5625 l -11.46875,-12.3125 c 0.4797,-0.44761 0.9344,-0.9192 1.40625,-1.375 z m -155.78125,1.375 c 0.48182,0.44941 0.94788,0.90271 1.4375,1.34375 l -11.25,12.5 c -0.56468,-0.50871 -1.13185,-1.01285 -1.6875,-1.53125 l 11.5,-12.3125 z m 152.90625,1.34375 11.25,12.5 c -0.56977,0.5133 -1.13992,1.02796 -1.71875,1.53125 L 428.5625,783.5 c 0.5056,-0.43952 1.00233,-0.89546 1.5,-1.34375 z m -150,1.3125 c 0.50002,0.43501 1.02358,0.85494 1.53125,1.28125 l -10.8125,12.90625 c -0.58783,-0.49355 -1.1711,-0.9963 -1.75,-1.5 l 11.03125,-12.6875 z m 147,1.28125 10.84375,12.875 c -0.57852,0.48607 -1.16295,0.96139 -1.75,1.4375 L 425.5625,786 c 0.50731,-0.41132 1,-0.83013 1.5,-1.25 z M 283.09375,786 c 0.51728,0.41941 1.03773,0.80834 1.5625,1.21875 l -10.375,13.25 c -0.59762,-0.46766 -1.19209,-0.92843 -1.78125,-1.40625 L 283.09375,786 z m 140.9375,1.21875 10.375,13.25 c -0.60956,0.47719 -1.22553,0.93978 -1.84375,1.40625 l -10.125,-13.4375 c 0.53424,-0.40298 1.06694,-0.80658 1.59375,-1.21875 z m -137.84375,1.1875 c 0.53346,0.40287 1.08424,0.79392 1.625,1.1875 l -9.90625,13.625 c -0.61969,-0.45099 -1.2324,-0.91339 -1.84375,-1.375 l 10.125,-13.4375 z m 134.65625,1.1875 9.90625,13.625 c -0.60987,0.44384 -1.22593,0.87907 -1.84375,1.3125 L 419.25,790.75 c 0.53608,-0.37608 1.06455,-0.77117 1.59375,-1.15625 z M 289.40625,790.75 c 0.54669,0.38357 1.10253,0.75091 1.65625,1.125 l -9.4375,13.96875 c -0.63412,-0.4284 -1.24891,-0.87327 -1.875,-1.3125 L 289.40625,790.75 z m 128.21875,1.125 9.40625,13.96875 c -0.62818,0.42439 -1.27032,0.83636 -1.90625,1.25 l -9.15625,-14.125 c 0.55394,-0.3603 1.10907,-0.72408 1.65625,-1.09375 z m -124.96875,1.0625 c 0.5694,0.37071 1.14233,0.73307 1.71875,1.09375 l -8.9375,14.28125 c -0.65924,-0.41266 -1.31751,-0.82591 -1.96875,-1.25 l 9.1875,-14.125 z m 121.625,1.09375 8.9375,14.28125 c -0.6433,0.40268 -1.28672,0.79583 -1.9375,1.1875 L 412.625,795.0625 c 0.55549,-0.33445 1.10702,-0.68758 1.65625,-1.03125 z m -118.25,1.03125 c 0.56958,0.34293 1.14269,0.69812 1.71875,1.03125 l -8.40625,14.5625 c -0.65648,-0.37964 -1.31959,-0.76552 -1.96875,-1.15625 l 8.65625,-14.4375 z m 114.875,1 8.4375,14.59375 c -0.6707,0.38788 -1.35305,0.78007 -2.03125,1.15625 l -8.15625,-14.75 c 0.58862,-0.32662 1.16787,-0.66325 1.75,-1 z m -111.4375,0.96875 c 0.55387,0.30761 1.09672,0.63897 1.65625,0.9375 l -7.9375,14.84375 c -0.63867,-0.34091 -1.274,-0.68005 -1.90625,-1.03125 l 8.1875,-14.75 z m 108,0.96875 7.90625,14.875 c -0.68265,0.36363 -1.37266,0.71076 -2.0625,1.0625 l -7.65625,-15 c 0.60408,-0.30799 1.21474,-0.61904 1.8125,-0.9375 z m -104.53125,0.90625 c 0.58443,0.29842 1.15976,0.58649 1.75,0.875 l -7.375,15.125 c -0.67692,-0.33086 -1.361,-0.65779 -2.03125,-1 l 7.65625,-15 z m 100.96875,0.90625 7.34375,15.125 c -0.66676,0.32527 -1.32691,0.65461 -2,0.96875 l -7.125,-15.25 c 0.59604,-0.27807 1.19092,-0.55565 1.78125,-0.84375 z m -97.4375,0.8125 c 0.58985,0.27563 1.18591,0.5468 1.78125,0.8125 l -6.84375,15.375 c -0.68281,-0.30464 -1.35472,-0.62149 -2.03125,-0.9375 l 7.09375,-15.25 z m 93.875,0.84375 6.84375,15.375 c -0.67421,0.30037 -1.35104,0.61707 -2.03125,0.90625 l -6.59375,-15.53125 c 0.59261,-0.25195 1.19387,-0.48828 1.78125,-0.75 z M 310.125,802.25 c 0.57704,0.24508 1.1681,0.48302 1.75,0.71875 l -6.3125,15.625 c -0.68008,-0.27537 -1.35695,-0.55726 -2.03125,-0.84375 l 6.59375,-15.5 z M 396.71875,803 403,818.625 c -0.70653,0.28545 -1.41237,0.57042 -2.125,0.84375 L 394.84375,803.75 c 0.63041,-0.2417 1.25008,-0.49741 1.875,-0.75 z M 313.75,803.71875 c 0.61691,0.23708 1.22169,0.46097 1.84375,0.6875 l -5.75,15.8125 c -0.71974,-0.2621 -1.44251,-0.50686 -2.15625,-0.78125 l 6.0625,-15.71875 z m 79.3125,0.6875 5.78125,15.8125 c -0.71475,0.26047 -1.43571,0.50178 -2.15625,0.75 l -5.46875,-15.90625 c 0.6139,-0.21159 1.23468,-0.43445 1.84375,-0.65625 z m -75.59375,0.6875 c 0.61708,0.21244 1.25315,0.39173 1.875,0.59375 L 314.125,821.71875 C 313.41287,821.48745 312.70668,821.2432 312,821 l 5.46875,-15.90625 z m 71.8125,0.625 5.1875,16 c -0.70856,0.22978 -1.41117,0.46962 -2.125,0.6875 l -4.9375,-16.09375 c 0.62987,-0.19212 1.24984,-0.39099 1.875,-0.59375 z m -68.09375,0.5625 c 0.64767,0.19813 1.28495,0.40698 1.9375,0.59375 l -4.625,16.1875 c -0.74707,-0.21378 -1.5085,-0.42951 -2.25,-0.65625 l 4.9375,-16.125 z m 64.34375,0.59375 4.65625,16.1875 c -0.73975,0.2117 -1.50492,0.39489 -2.25,0.59375 l -4.34375,-16.25 c 0.64995,-0.17345 1.29221,-0.34658 1.9375,-0.53125 z M 325,807.375 c 0.64311,0.17204 1.28993,0.33905 1.9375,0.5 l -4.09375,16.34375 c -0.74552,-0.18547 -1.47838,-0.39548 -2.21875,-0.59375 L 325,807.375 z m 56.65625,0.5 4.0625,16.34375 c -0.71,0.1761 -1.41044,0.36687 -2.125,0.53125 l -3.78125,-16.40625 c 0.62072,-0.14272 1.22698,-0.31587 1.84375,-0.46875 z m -52.78125,0.46875 c 0.64243,0.14771 1.29095,0.26953 1.9375,0.40625 l -3.5,16.46875 c -0.75101,-0.15874 -1.50383,-0.2971 -2.25,-0.46875 l 3.8125,-16.40625 z m 49,0.40625 3.5,16.46875 c -0.74843,0.15838 -1.49688,0.3233 -2.25,0.46875 l -3.1875,-16.53125 c 0.64792,-0.12517 1.29357,-0.27008 1.9375,-0.40625 z m -45.125,0.40625 c 0.6472,0.12495 1.28642,0.22988 1.9375,0.34375 l -2.90625,16.59375 c -0.74149,-0.12967 -1.48164,-0.26408 -2.21875,-0.40625 L 332.75,809.15625 z M 374,809.5 l 2.90625,16.59375 c -0.73696,0.12905 -1.47758,0.25841 -2.21875,0.375 L 372.03125,809.8125 C 372.68522,809.70975 373.3498,809.6139 374,809.5 z m -37.34375,0.34375 c 0.64402,0.10098 1.28992,0.19118 1.9375,0.28125 L 336.25,826.78125 c -0.74959,-0.10435 -1.50455,-0.19542 -2.25,-0.3125 l 2.65625,-16.625 z m 33.4375,0.28125 2.34375,16.65625 c -0.77197,0.10756 -1.53625,0.21856 -2.3125,0.3125 L 368.09375,810.375 c 0.66948,-0.0811 1.33418,-0.15721 2,-0.25 z M 340.5,810.375 c 0.64449,0.0785 1.28971,0.15115 1.9375,0.21875 l -1.75,16.75 c -0.75675,-0.0789 -1.49716,-0.18944 -2.25,-0.28125 L 340.5,810.375 z m 25.625,0.21875 1.75,16.75 c -0.73859,0.0765 -1.47654,0.15472 -2.21875,0.21875 l -1.46875,-16.78125 c 0.64508,-0.0557 1.29556,-0.12104 1.9375,-0.1875 z m -21.65625,0.1875 c 0.64388,0.0556 1.29058,0.1115 1.9375,0.15625 l -1.1875,16.8125 c -0.74294,-0.0514 -1.4793,-0.12371 -2.21875,-0.1875 l 1.46875,-16.78125 z m 17.6875,0.15625 1.1875,16.8125 c -0.7387,0.0505 -1.47671,0.0869 -2.21875,0.125 l -0.875,-16.8125 c 0.63943,-0.0329 1.26967,-0.0815 1.90625,-0.125 z m -13.8125,0.125 c 0.67445,0.0351 1.35372,0.0705 2.03125,0.0937 l -0.59375,16.8125 c -0.77002,-0.0264 -1.54593,-0.054 -2.3125,-0.0937 l 0.875,-16.8125 z m 9.96875,0.0937 0.59375,16.8125 c -0.77978,0.027 -1.56054,0.0493 -2.34375,0.0625 l -0.28125,-16.84375 c 0.67967,-0.0115 1.35454,-0.008 2.03125,-0.0313 z m -6,0.0313 c 0.67262,0.0118 1.35582,0.0313 2.03125,0.0313 l 0,16.84375 c -0.76872,0 -1.54695,-0.018 -2.3125,-0.0313 l 0.28125,-16.84375 z"
       id="path3133-3"
       style="fill:#231f20;fill-opacity:0;fill-rule:nonzero;stroke:#000000;stroke-width:0.35433072;stroke-miterlimit:4;stroke-opacity:1;stroke-dasharray:none" />
  </g>
</svg>
